<svg xmlns="http://www.w3.org/2000/svg" width="1720.68" height="1200" viewBox="0 0 1720.68 1200"><title>01-Homepage-Header-Illustration</title><g opacity="0.4" style="isolation:isolate"><rect x="35.23" y="393.71" width="341.2" height="290.23" fill="#f2d28e"/></g><rect x="1227.29" y="433.29" width="452.88" height="417.17" fill="#e6f2e8"/><rect x="659.34" y="55.08" width="500.16" height="352.31" fill="#f7e0df"/><path d="M1129.88,995.3c8.36-130.57-49.81-256.12-52.29-261.4l-25.17,11.83,12.58-5.92-12.58,5.91c.58,1.23,57.61,124.52,49.71,247.8Z" fill="#fff"/><path d="M1131.17,996.77l-30.52-1.95.09-1.39c7.88-122.91-49-245.89-49.58-247.12l-.59-1.26,27.68-13,.59,1.26c2.49,5.3,60.81,131.18,52.42,262.07Zm-27.57-4.55,25,1.6c7.52-124.31-45.11-243.74-51.67-258.06l-22.65,10.64C1060.27,759.77,1110.61,875.8,1103.6,992.22Z" fill="#212121"/><path d="M830.81,995.3c-8.37-130.57,49.81-256.12,52.29-261.4l25.16,11.83-12.58-5.92,12.59,5.91c-.58,1.23-57.61,124.52-49.71,247.8Z" fill="#fff"/><path d="M829.51,996.77l-.09-1.39C821,864.49,879.36,738.61,881.84,733.31l.59-1.26,27.69,13-.59,1.26C909,747.54,852.07,870.52,860,993.43l.08,1.39Zm54.27-261c-6.56,14.32-59.19,133.75-51.67,258.06l25-1.6c-7-116.42,43.34-232.45,49.35-245.82Z" fill="#212121"/><path d="M660.72,1070.58s-8.5,12.11-10.5,21.07,6.09,15.56,22,13.89,64.46,4,67.05.3,14.94-26.72-17.37-24.91-45.25-5.24-45.25-5.24" fill="#212121"/><path d="M672,997.81s-9.44,33.56-10.44,86.89a5.88,5.88,0,0,0,5.5,6.21c3.25.1,7.42-.32,9-3.59,17.06-36.36,33.45-96.45,33.45-96.45" fill="#fff"/><path d="M667.78,1092.31H667a7.24,7.24,0,0,1-6.85-7.63c1-52.9,10.4-86.9,10.5-87.24a1.38,1.38,0,0,1,1.71-1,1.39,1.39,0,0,1,1,1.72c-.09.33-9.41,34-10.39,86.54a4.48,4.48,0,0,0,4.16,4.79c4.19.14,6.71-.78,7.65-2.79,16.81-35.83,33.21-95.63,33.37-96.23a1.39,1.39,0,0,1,2.68.74c-.16.6-16.62,60.62-33.53,96.67C675.86,1090.83,672.68,1092.31,667.78,1092.31Z" fill="#212121"/><path d="M250.74,985c55.37,6.16,42.66,28.11,42.66,28.11l-59.26,1.23H231c-2.29-7.53-1.17-16.58.33-22.37a10.2,10.2,0,0,1,10.61-7.59Z" fill="#212121"/><path d="M259.69,1000h-.11a1.4,1.4,0,0,1-1.28-1.49c.07-1,.82-9.8,5.22-12.44a1.39,1.39,0,1,1,1.43,2.39c-2.68,1.61-3.71,7.95-3.88,10.25A1.39,1.39,0,0,1,259.69,1000Z" fill="#fff"/><path d="M268.66,1000.19h-.17a1.38,1.38,0,0,1-1.21-1.55c.18-1.41,1.26-8.55,5-10.08a1.39,1.39,0,1,1,1.06,2.57c-1.67.68-2.94,5-3.3,7.86A1.39,1.39,0,0,1,268.66,1000.19Z" fill="#fff"/><path d="M178.45,998.93c55.37,6.15,42.66,28.11,42.66,28.11l-59.26,1.22h-3.14c-2.29-7.55-1.17-16.61.34-22.4a10.07,10.07,0,0,1,10.57-7.49l12.48,1" fill="#212121"/><path d="M187.4,1013.89h-.11a1.39,1.39,0,0,1-1.28-1.49c.07-1,.82-9.79,5.22-12.44a1.39,1.39,0,1,1,1.43,2.39c-2.68,1.61-3.71,7.95-3.88,10.25A1.39,1.39,0,0,1,187.4,1013.89Z" fill="#fff"/><path d="M196.37,1014.1h-.17a1.39,1.39,0,0,1-1.21-1.56c.18-1.41,1.26-8.55,5-10.08a1.39,1.39,0,1,1,1.06,2.57c-1.67.69-2.94,5-3.3,7.86A1.4,1.4,0,0,1,196.37,1014.1Z" fill="#fff"/><path d="M224.24,774.7s13.87,149,13.56,216.17a5.18,5.18,0,0,0,4.21,5.24,9.24,9.24,0,0,0,8.43-3.18C262.85,979.75,272,888.06,272,762.57,271.82,568.23,224.24,774.7,224.24,774.7Z" fill="#fff"/><path d="M243.42,997.6a10.94,10.94,0,0,1-1.6-.11,6.53,6.53,0,0,1-5.41-6.62c.31-66.29-13.41-214.55-13.55-216a1.6,1.6,0,0,1,0-.44c.05-.24,5.68-24.59,13-48.42,13.48-44.12,20.72-48.57,25-48.1s7.22,6.9,9.24,20.19c2.13,13.92,3.21,35.62,3.23,64.51.08,124.37-8.72,217.33-21.89,231.31A10.79,10.79,0,0,1,243.42,997.6ZM225.65,774.8c.61,6.62,13.84,150.86,13.54,216.08a3.83,3.83,0,0,0,3,3.86,7.82,7.82,0,0,0,7.21-2.77c3.41-3.61,9.89-17.79,15.08-72.23,4-42,6.1-96.39,6.06-157.17-.05-72.93-7-81.6-10-81.94-2.26-.23-9.06,3.7-22,46.14C231.63,749.32,226.22,772.33,225.65,774.8Z" fill="#212121"/><path d="M152.3,761s18,127,12,247.19c-.24,4.59,2.9,6.83,4.6,6.87a9.83,9.83,0,0,0,9.6-6.87c8.71-23.81,14.26-53,26.15-238.07" fill="#fff"/><path d="M169.08,1016.48h-.25a5.76,5.76,0,0,1-3.84-2,8.58,8.58,0,0,1-2.12-6.36c6-118.65-11.77-245.65-12-246.92a1.39,1.39,0,0,1,2.76-.39c.18,1.27,18,128.54,12,247.45a5.69,5.69,0,0,0,1.38,4.33,3.13,3.13,0,0,0,1.87,1.08,8.41,8.41,0,0,0,8.25-6c8.91-24.34,14.39-55.72,26.07-237.68a1.39,1.39,0,0,1,2.78.18c-11.71,182.31-17.23,213.86-26.24,238.46A11.23,11.23,0,0,1,169.08,1016.48Z" fill="#212121"/><path d="M219.85,219.29s-20.71-13.48-41.25,12.91c-8.82,11.33-4.64,25.41-23.95,31.49-3.6,1.13-6.31,3.58,2.44,7s-9.94,3.18-9.33,11.37,8.16-1.12,4.75,7.9-49,62.94-22.44,98.66C144.6,408.11,270.18,439,288,383.87s-7.68-95.83-1.66-93.68c8.11,2.9.24-10.53-1.28-14.64C273.73,245.09,273.29,198.32,219.85,219.29Z" fill="#212121"/><path d="M263.4,360.67c-24.33-6.11-33.25-3.07-33.25-3.07L197,356.36c-.82.22-52.25-11.92-67,20.87s-11.47,63.12-9.46,62.38,41.37,1.5,41.37,1.5-11.68,104.45-10,105.12c-5.56,18.18-21,66.84-18.35,129.39,3.22,76,.11,96,.11,96h0a205.49,205.49,0,0,0,153.26,4.94l9.44-3.45S279.92,662.54,280.43,632c.42-25.61-10.51-119.37,5.48-175.7C300.11,406.32,287.73,366.78,263.4,360.67Z" fill="#5ca897"/><path d="M288,383.87s41.54,81.56,30.37,110.24-39-3-42.31-27.69S288,383.87,288,383.87Z" fill="#fff"/><path d="M305.83,506.88a12.71,12.71,0,0,1-1.53-.09c-13.31-1.6-27.43-23.43-29.66-40.19-3.28-24.68,11.35-80.71,12-83.08a1.4,1.4,0,0,1,2.59-.28c.1.21,10.52,20.74,19.43,44.51,12.06,32.15,15.76,54.64,11,66.87C315.78,504.5,310.26,506.88,305.83,506.88Zm-17.45-119c-3.23,13.05-13.72,57.78-11,78.37,2.26,17,16.26,36.47,27.23,37.79,5.29.63,9.47-2.87,12.4-10.42C326.58,469.09,296,403.49,288.38,387.87Z" fill="#212121"/><path d="M337.28,1029.29s-18.26-7.4-24.27-4.36-3.57,27-7,36.2c-6.28,16.91,4.89,28.13,23,28.25s32.88-5.9,14.33-17.56S329,1047,334.9,1040" fill="#212121"/><path d="M404.81,1025a756.44,756.44,0,0,1-79.16,6.89c-2.85.08-3.88,3.42-4.12,5.67a6.41,6.41,0,0,0,2.32,5.37c12.65,12.23,81.93,15.26,81.93,15.26Z" fill="#fff"/><path d="M405.78,1059.57h-.06c-2.85-.13-70-3.2-82.84-15.65-2.07-2-3-4.2-2.73-6.53.36-3.27,2-6.8,5.46-6.9a761.28,761.28,0,0,0,79-6.88,1.4,1.4,0,0,1,1.6,1.34l1,33.19a1.4,1.4,0,0,1-.41,1A1.38,1.38,0,0,1,405.78,1059.57Zm-2.32-33a769.33,769.33,0,0,1-77.77,6.68c-2.19.06-2.7,3.7-2.78,4.43a5.06,5.06,0,0,0,1.91,4.22c4.95,4.79,20.47,8.88,44.89,11.83,15.47,1.88,30,2.73,34.64,3Z" fill="#212121"/><path d="M453.42,936.75s62.33,60.66,54.73,69.81-118.71,4.49-118.71,9.94-8.78,54.65-5.8,53.93,186.9,8.85,201.42-41.35S554.14,911,554.14,911" fill="#212121"/><path d="M397.39,857.8s-3.55,102.64,83.32,97.37,152.63-76,182.25-63.74c24.62,10.19.58,87-8.25,112.64a6.67,6.67,0,0,0,6,8.83l45.15,2.47a6.68,6.68,0,0,0,6.79-4.81c8.54-29.53,48-177.93-16.06-194.89-63.14-16.7-206.74,44-206.74,44" fill="#212121"/><path d="M1381.17,1049.21c-1.58-1.82-4.58,4.45-.13,9.08,2.34,2.42,42.88,5.25,72.54-3.78s26.54-12.9,26.54-12.9l-.13-7Z" fill="#c3c3c3"/><path d="M1465.82,1003.07A55.59,55.59,0,0,1,1480,1034.6c2.22,19.88-103.81,30.48-100.75,14.61s42.15-17,47.75-27.3,12.82-18.08,16.73-12.07" fill="#325187"/><path d="M1440.41,954.43s-5.58,71.59,13.27,68.87,15.57-78.46,15.57-78.46" fill="#fff"/><path d="M1452.64,1024.77a8,8,0,0,1-5.58-2.32c-12.3-11.53-8.22-65.82-8-68.13l2.77.22c0,.14-1.07,14.07-.67,29.18.52,19.69,3.23,32.38,7.84,36.7a5.23,5.23,0,0,0,4.52,1.51c14.44-2.08,15.28-56.31,14.38-77l2.78-.12a361.26,361.26,0,0,1-.72,38.39c-2.1,26.31-7.5,40.28-16,41.51A8.83,8.83,0,0,1,1452.64,1024.77Z" fill="#212121"/><path d="M1467.49,991.46a36.79,36.79,0,0,1-9.44,1.58,55.11,55.11,0,0,1-13.36-1.46,20.12,20.12,0,0,0-4.73-.53c1.42,16.61,5.2,33.23,14.78,31.09C1462.66,1020.36,1466.12,1006.63,1467.49,991.46Z" fill="#fff"/><path d="M1453.09,1023.72a7.89,7.89,0,0,1-4.73-1.6c-5.06-3.7-8.35-14.12-9.78-31l-.12-1.46,1.45-.05a22.16,22.16,0,0,1,5.06.56,54.05,54.05,0,0,0,13,1.43,35.37,35.37,0,0,0,9.09-1.52l2-.61-.18,2.06c-1.77,19.52-6.42,30.25-13.84,31.92A9.4,9.4,0,0,1,1453.09,1023.72Zm-11.6-31.24c1.77,18.73,5.58,25.25,8.51,27.4a5.19,5.19,0,0,0,4.43.9c5.79-1.3,9.75-10.77,11.48-27.45a37.69,37.69,0,0,1-7.81,1.1,57.39,57.39,0,0,1-13.7-1.48A25.27,25.27,0,0,0,1441.49,992.48Z" fill="#212121"/><path d="M1603,918.84s5.79,3.73,5.32,6.31-5.45,25.24-9.49,33.35c-2.83,5.66-5.32,25.55-22.52,42a6,6,0,0,1-7.2.86l-1-.6" fill="#c3c3c3"/><path d="M1578.66,910.89s18.24,1.9,24.3,8-1.07,20-7.56,40.47c-12.89,40.54-27.33,41.44-27.33,41.44s-13.66,1.4-6.31-37.2c5.93-31.15-5.06-28.31-4.27-32.7C1559,922.22,1578.66,910.89,1578.66,910.89Z" fill="#325187"/><path d="M1531.39,895.73s43,50.78,53.75,35S1543.81,868,1543.81,868" fill="#fff"/><path d="M1579.29,935.19c-16.11,0-47.62-37-49-38.56l2.12-1.8c.32.38,32,37.59,46.78,37.59l.44,0A5.22,5.22,0,0,0,1584,930c8.25-12.08-26.88-48.12-41.12-61l1.87-2.06a310.16,310.16,0,0,1,24.82,25.63c16,18.76,21.58,31.87,16.73,39a8,8,0,0,1-6.48,3.61Z" fill="#212121"/><path d="M1407.34,564S1367.77,707,1378.5,741.51s89.13,161.28,149.85,169.73l37.93-42.76-102-139.76-.82-168.06Z" fill="#5f6ce6"/><path d="M1443.72,569.74s-61.28,250-16.7,399l68-8.87S1513.6,675,1534.87,557.61Z" fill="#5f6ce6"/><path d="M1280.16,545.6c12.72,3.71,57.31,10.23,85,30.51,1.89,1.39,1.1-2.07,0,0-4.47,8.44-10.55,45-13.71,63.51a4.69,4.69,0,0,1-6.44,3.6c-12.59-5.31-45.17-17.52-88.51-22.23a4.66,4.66,0,0,1-4.17-5.1c1.3-12,6.21-44.92,22.72-68.55A4.61,4.61,0,0,1,1280.16,545.6Z" fill="#fff"/><path d="M1346.86,645a6.07,6.07,0,0,1-2.36-.48c-12-5.09-44.73-17.42-88.12-22.13a6.07,6.07,0,0,1-5.4-6.64c1.39-12.91,6.41-45.51,23-69.2a6,6,0,0,1,6.61-2.28c2.47.72,6.16,1.55,10.83,2.6,19.22,4.31,51.21,11.47,73.64,27.42a1.74,1.74,0,0,1,1.1-.22,2,2,0,0,1,.81,3.5,1.82,1.82,0,0,1-1,.28c-4.09,9.46-9.55,41.45-12.54,59l-.52,3a6.13,6.13,0,0,1-3.11,4.39A5.92,5.92,0,0,1,1346.86,645Zm-68-98.19a3.16,3.16,0,0,0-2.61,1.34c-16.18,23.15-21.1,55.2-22.47,67.9a3.27,3.27,0,0,0,2.93,3.57c43.76,4.75,76.75,17.2,88.9,22.33a3.25,3.25,0,0,0,2.82-.13,3.39,3.39,0,0,0,1.71-2.43l.52-3c3.23-18.91,8.55-50.07,12.8-59.78-22-15.63-53.64-22.73-72.66-27-4.72-1.06-8.44-1.89-11-2.64h0A3.38,3.38,0,0,0,1278.83,546.8Zm87.69,29.8Zm-.35-1.5Z" fill="#212121"/><path d="M1327.51,632a334.71,334.71,0,0,0-73.76-16.58,4.66,4.66,0,0,1-4.17-5.1c1.3-12,6.21-44.92,22.72-68.55a4.61,4.61,0,0,1,5.08-1.74c12.72,3.71,58.13,13,85.85,33.32,1.89,1.38,3.06.68,2,2.75-4.47,8.44-13.33,39.49-16.49,57.95a4.69,4.69,0,0,1-6.44,3.6c-3.47-1.46-8.45-3.45-14.75-5.65" fill="#fff"/><path d="M1344.08,639.42a6.07,6.07,0,0,1-2.36-.48c-4.5-1.9-9.44-3.79-14.67-5.62a334.47,334.47,0,0,0-73.45-16.51,6.06,6.06,0,0,1-5.4-6.63c1.39-12.92,6.42-45.52,23-69.2a6,6,0,0,1,6.61-2.28c1.92.56,4.57,1.25,7.92,2.11,17.74,4.57,54.67,14.09,78.37,31.42a6.15,6.15,0,0,0,1.27.7,2.46,2.46,0,0,1,1.57,1.38,3.12,3.12,0,0,1-.48,2.46c-4.4,8.3-13.26,39.48-16.35,57.52a6.13,6.13,0,0,1-3.11,4.39A5.91,5.91,0,0,1,1344.08,639.42Zm-68-98.18a3.16,3.16,0,0,0-2.61,1.34c-16.18,23.15-21.11,55.19-22.47,67.9a3.27,3.27,0,0,0,2.94,3.57A337.48,337.48,0,0,1,1328,630.69h0c5.28,1.85,10.28,3.77,14.83,5.69a3.25,3.25,0,0,0,2.82-.13,3.39,3.39,0,0,0,1.71-2.43c3.19-18.61,12.05-49.7,16.63-58.36a.2.2,0,0,0,0-.08,8.34,8.34,0,0,1-1.59-.9c-23.26-17-59.84-26.45-77.42-31-3.37-.87-6-1.55-8-2.13A3.38,3.38,0,0,0,1276.05,541.24Z" fill="#212121"/><path d="M1274.6,534.48c12.72,3.7,60.91,18.59,88.63,38.88a4.69,4.69,0,0,1,1.42,6c-4.47,8.43-15.57,30.7-18.73,49.16a4.69,4.69,0,0,1-6.44,3.6c-12.59-5.31-45.17-17.52-88.51-22.23a4.66,4.66,0,0,1-4.17-5.1c1.3-12,6.21-44.92,22.72-68.55A4.59,4.59,0,0,1,1274.6,534.48Z" fill="#325187"/><path d="M1465.12,275.51s32.75,1.36,38.79,44.23,48.16,257.06,43.7,260-49.64-6.55-93.17,4.55-42-3.38-54.82-.67-18.91-243.07-1.7-283.23Z" fill="#fff"/><path d="M1426.81,590a40,40,0,0,1-17.12-3.47c-3.35-1.36-5.76-2.34-9.78-1.49a2.75,2.75,0,0,1-2.76-1.18c-6.8-8.28-10.54-74.78-11.14-133.07-.61-59.51,1.86-130.4,10.64-150.89l.23-.55,68-25.21h.28c.34,0,34,1.91,40.1,45.43,2.26,16,9.73,56.9,17.63,100.16,6.85,37.49,13.93,76.25,19.12,106.79,9,52.7,7.63,53.58,6.35,54.43-1.77,1.18-6.15,1-16.76.29-17.85-1.11-47.72-3-76.83,4.45C1442.24,588.86,1433.38,590,1426.81,590Zm-24.06-8.06c3,0,5.37,1,8,2,6.44,2.62,15.27,6.2,43.37-1,29.53-7.53,59.68-5.65,77.69-4.52,6.38.4,13,.81,14.74.29,1.17-7.87-14.71-94.79-26.36-158.53-7.9-43.29-15.38-84.18-17.64-100.27-5.58-39.6-33.91-42.79-37.2-43L1399,301.51c-8.61,21.3-10.85,95.43-10.14,152.85.41,32.87,1.73,64,3.71,87.69,3,35.6,6.31,39.74,6.93,40.21A16.53,16.53,0,0,1,1402.75,581.91Z" fill="#212121"/><path d="M1413,586.77a1.38,1.38,0,0,1-1.39-1.37c0-.52-.53-52.46-9.05-131.92-8.55-79.78,10.32-155.68,10.51-156.43a1.39,1.39,0,1,1,2.69.68c-.19.75-18.93,76.19-10.43,155.46,8.53,79.6,9.05,131.67,9.06,132.18a1.39,1.39,0,0,1-1.38,1.4Z" fill="#212121"/><path d="M1376.17,166.51s-2.2,25,6.68,37.69,11.85-31.35,11.85-31.35" fill="#212121"/><rect x="935.95" y="565.04" width="72.95" height="11.12" transform="matrix(0.53, -0.85, 0.85, 0.53, -26.41, 1093.6)" fill="#fff"/><path d="M958.28,606.4,946.48,599l40.09-64.25,11.8,7.36Zm-8-8.24,7.08,4.41L994.54,543l-7.08-4.42Z" fill="#212121"/><circle cx="957.15" cy="600.56" r="16.68" fill="#3aab97"/><circle cx="957.15" cy="600.56" r="6.95" fill="#f9d285"/><path d="M1049,668.12c0,63.35-57.86,60.92-91.5,60.92s-30.34-27.28-30.34-60.92-3.63-60.61,30-60.61S1049,608.55,1049,668.12Z" fill="#212121"/><circle cx="957.48" cy="668.12" r="60.92" fill="#fff"/><path d="M957.48,730.43a62.31,62.31,0,1,1,62.31-62.31A62.38,62.38,0,0,1,957.48,730.43Zm0-121.84A59.53,59.53,0,1,0,1017,668.12,59.59,59.59,0,0,0,957.48,608.59Z" fill="#212121"/><path d="M957.48,725.12a57,57,0,1,1,57-57A57.06,57.06,0,0,1,957.48,725.12Zm0-111.22a54.22,54.22,0,1,0,54.21,54.22A54.28,54.28,0,0,0,957.48,613.9Z" fill="#5b6def"/><polygon points="951.14 670.44 894.48 602 935.22 536.71 944.66 542.6 908.16 601.09 959.71 663.35 951.14 670.44" fill="#fff"/><path d="M951,672.4l-58.19-70.28,42-67.33,11.79,7.36L909.87,601l51.8,62.56Zm-54.77-70.51,55.14,66.59,6.42-5.32-51.3-62L942.74,543l-7.07-4.42Z" fill="#212121"/><circle cx="904.34" cy="600.65" r="16.68" fill="#3aab97"/><circle cx="904.34" cy="600.65" r="6.95" fill="#f9d285"/><circle cx="954.62" cy="666.89" r="16.68" fill="#3aab97"/><circle cx="954.62" cy="666.89" r="6.95" fill="#f9d285"/><path d="M964.54,321.41a128.83,128.83,0,0,1-3.11,16,24.44,24.44,0,0,1-15.9-3.74,106.84,106.84,0,0,0,2.65-12.72A38,38,0,0,0,964.54,321.41Z" fill="#fff"/><path d="M958.83,338.88a25,25,0,0,1-14.08-4.1l-.82-.56.26-1a106.51,106.51,0,0,0,2.62-12.55l.23-1.54,1.5.39a36.39,36.39,0,0,0,15.76.49l1.87-.34-.25,1.89a131.84,131.84,0,0,1-3.15,16.13l-.24.94-1,.09C960.72,338.83,959.8,338.88,958.83,338.88ZM947.14,333a22.94,22.94,0,0,0,13.19,3.06,127.34,127.34,0,0,0,2.58-13,39.25,39.25,0,0,1-13.58-.47C948.76,326.14,948,329.62,947.14,333Z" fill="#212121"/><path d="M965.46,293.37c.26,4.14.37,8.68.23,13.52a24.87,24.87,0,0,1-16.29-.2c.1-4.08,0-7.92-.23-11.43A38.86,38.86,0,0,0,965.46,293.37Z" fill="#fff"/><path d="M957.54,309.57A24,24,0,0,1,948.9,308l-.92-.35,0-1c.09-3.7,0-7.51-.23-11.31l-.11-1.64,1.64.17A37.06,37.06,0,0,0,965,292.05l1.72-.57.11,1.81c.28,4.52.36,9.11.23,13.64l0,1-.94.3A28.89,28.89,0,0,1,957.54,309.57Zm-6.73-3.85a23.35,23.35,0,0,0,13.52.12c.07-3.53,0-7.09-.16-10.61a40,40,0,0,1-13.52,1.55C950.81,299.78,950.86,302.78,950.81,305.72Z" fill="#212121"/><path d="M951.59,263.8a8.35,8.35,0,0,1,10.32,5.71,96.16,96.16,0,0,1,2,9.62,25.1,25.1,0,0,1-16.5,1.71c-.71-3.78-1.36-6.18-1.52-6.73A8.36,8.36,0,0,1,951.59,263.8Z" fill="#fff"/><path d="M953.05,283a23.45,23.45,0,0,1-6-.77l-.85-.23-.16-.86c-.7-3.79-1.36-6.17-1.48-6.61a9.75,9.75,0,0,1,6.66-12h0a9.76,9.76,0,0,1,12,6.66s1,3.67,2,9.77l.17,1.06-1,.43A28,28,0,0,1,953.05,283Zm-4.47-3.26a23.38,23.38,0,0,0,13.76-1.42c-.9-5.3-1.76-8.35-1.77-8.39a7,7,0,0,0-8.6-4.75h0a7,7,0,0,0-4.76,8.59C947.38,274.33,947.94,276.41,948.58,279.7Z" fill="#212121"/><path d="M963.89,279.13c.61,3.83,1.23,8.66,1.57,14.24a38.86,38.86,0,0,1-16.29,1.89,124.81,124.81,0,0,0-1.78-14.42A25.1,25.1,0,0,0,963.89,279.13Z" fill="#fff"/><path d="M953,296.85a37.19,37.19,0,0,1-4-.21l-1.16-.12-.08-1.17A121.4,121.4,0,0,0,946,281.1l-.4-2.16,2.12.56a23.49,23.49,0,0,0,15.57-1.64l1.66-.75.29,1.79c.75,4.68,1.29,9.52,1.59,14.39l.07,1.06-1,.34A40.64,40.64,0,0,1,953,296.85Zm-2.5-2.87a37.3,37.3,0,0,0,13.53-1.6c-.26-3.81-.67-7.6-1.22-11.29a26.15,26.15,0,0,1-13.67,1.55C949.73,286.31,950.18,290.11,950.47,294Z" fill="#212121"/><path d="M965.69,306.89a140.66,140.66,0,0,1-1.15,14.52,38,38,0,0,1-16.36-.5,117.75,117.75,0,0,0,1.22-14.22A24.87,24.87,0,0,0,965.69,306.89Z" fill="#fff"/><path d="M957.36,323.46a37.39,37.39,0,0,1-9.53-1.21l-1.2-.31.18-1.24a117.24,117.24,0,0,0,1.2-14l0-2,1.84.71a23.48,23.48,0,0,0,15.38.17l1.86-.59-.06,1.95a144.6,144.6,0,0,1-1.16,14.67l-.13,1-1,.18A42.17,42.17,0,0,1,957.36,323.46Zm-7.62-3.61a36.16,36.16,0,0,0,13.55.36c.47-3.76.79-7.61,1-11.47a26,26,0,0,1-13.51-.13C950.57,312.41,950.24,316.18,949.74,319.85Z" fill="#212121"/><path d="M958.08,347.88c1.28-3.52,2.44-7,3.35-10.51a24.44,24.44,0,0,1-15.9-3.74,100.41,100.41,0,0,1-4.24,12.23C946.91,346.27,952.5,347.05,958.08,347.88Z" fill="#fff"/><path d="M959,349.42l-1.12-.16c-6.19-.93-11.4-1.62-16.69-2l-1.93-.14.75-1.78a99.63,99.63,0,0,0,4.18-12.07l.51-1.87,1.61,1.08a23,23,0,0,0,15,3.52l2-.18-.51,1.92c-.84,3.21-1.95,6.69-3.38,10.63Zm-15.71-4.79c4.42.38,8.83,1,13.87,1.71,1-2.69,1.76-5.15,2.42-7.47a25.51,25.51,0,0,1-13.21-3.1C945.51,338.68,944.48,341.65,943.29,344.63Z" fill="#212121"/><path d="M1384.61,191.73a221.92,221.92,0,0,0-1.17,43.76c1.8,23.26,24.78,24.74,25.27,30.74s-3.35,16.46-1.37,18.62,2.69,10.87,10.74,6.09,39.36-19.79,39.36-19.79-6.68-14.07-1.24-34.67,46.8-48.68,3.62-59.86S1385.31,167.55,1384.61,191.73Z" fill="#fff"/><path d="M1413.92,293.75a5.45,5.45,0,0,1-1.67-.26c-2.68-.85-3.94-3.63-4.85-5.67a10.32,10.32,0,0,0-1.08-2c-1.49-1.62-1-4.76,0-10.17.58-3.17,1.23-6.75,1-9.27-.11-1.28-2.86-2.81-5.77-4.43-7.27-4-18.25-10.15-19.51-26.32a225.09,225.09,0,0,1,1.18-44c.22-7,2.93-12.55,8-16.4,14.53-10.92,45.48-6,68.89.07,11.15,2.88,17.6,7.1,19.73,12.89,3.21,8.75-4.21,19.26-11.38,29.42-4.63,6.58-9.43,13.37-11,19.24-5.24,19.89,1.09,33.59,1.15,33.72l.6,1.25-1.25.6c-.31.15-31.34,15.06-39.25,19.74A9.79,9.79,0,0,1,1413.92,293.75Zm3.35-122.27c-10.83,0-19,2-24.32,6-4.43,3.33-6.77,8.15-7,14.33v.16a222.55,222.55,0,0,0-1.17,43.46c1.14,14.68,10.94,20.12,18.09,24.1,3.89,2.16,7,3.87,7.19,6.63s-.43,6.5-1.06,10c-.48,2.63-1.28,7-.67,7.79a10.51,10.51,0,0,1,1.56,2.77c.78,1.73,1.66,3.69,3.16,4.16,1.06.34,2.5,0,4.28-1.09,7.22-4.28,32.41-16.46,38.28-19.28-1.52-4-5.43-16.8-.8-34.35,1.68-6.35,6.62-13.36,11.4-20.13,6.76-9.58,13.74-19.48,11-26.86-1.79-4.87-7.62-8.52-17.82-11.16C1442.76,173.65,1428.58,171.48,1417.27,171.48Z" fill="#212121"/><path d="M1298.49,516.31a33.84,33.84,0,0,1-18.38-5.5c-15.15-9.8-19.92-29.44-10.64-43.79s29.16-18,44.3-8.25a33.37,33.37,0,0,1,15,22.77,6.95,6.95,0,1,1-13.73,2.15,19.54,19.54,0,0,0-8.83-13.25c-8.71-5.63-20-3.78-25.07,4.13s-2.2,18.94,6.51,24.57a19.41,19.41,0,0,0,16.18,2.48,7,7,0,0,1,4.05,13.3A32.43,32.43,0,0,1,1298.49,516.31Z" fill="#fff"/><path d="M1298.49,517.7a35.25,35.25,0,0,1-19.14-5.72,34.84,34.84,0,0,1-15.07-21,31.36,31.36,0,0,1,4-24.68c9.69-15,30.43-18.88,46.22-8.67a34.83,34.83,0,0,1,15.63,23.73,8.34,8.34,0,1,1-16.49,2.57,18.68,18.68,0,0,0-21.11-15.1,14.59,14.59,0,0,0-12,18.55,18.3,18.3,0,0,0,7.85,10.62,18,18,0,0,0,15,2.32,8.34,8.34,0,0,1,4.85,16A33.8,33.8,0,0,1,1298.49,517.7Zm-3.09-63a29.18,29.18,0,0,0-24.76,13.1,28.59,28.59,0,0,0-3.66,22.51,32,32,0,0,0,13.88,19.35,32.37,32.37,0,0,0,17.63,5.28,31.06,31.06,0,0,0,9-1.33,5.56,5.56,0,1,0-3.24-10.64,20.78,20.78,0,0,1-17.34-2.65,21,21,0,0,1-9-12.23,17.39,17.39,0,0,1,14.24-22,21.14,21.14,0,0,1,14.87,3.22,20.91,20.91,0,0,1,9.44,14.2,5.56,5.56,0,1,0,11-1.71A32.06,32.06,0,0,0,1313,459.93,32.43,32.43,0,0,0,1295.4,454.68Z" fill="#212121"/><path d="M1263.84,475.3a8.33,8.33,0,0,0,9-1.38,8.46,8.46,0,0,0,2.06-2.81,8.34,8.34,0,0,0-4.19-11c-2.06-.92-4-1.88-6-2.85a37.57,37.57,0,0,1-9.8,13.73Q1259.18,473.21,1263.84,475.3Z" fill="#fff"/><path d="M1267.25,477.42a9.72,9.72,0,0,1-4-.85h0c-3-1.36-6.06-2.83-9-4.37l-1.79-.93,1.5-1.34a36.06,36.06,0,0,0,9.45-13.23l.57-1.39,1.34.67c2.21,1.11,4.09,2,5.92,2.83a9.75,9.75,0,0,1,4.89,12.87,9.7,9.7,0,0,1-8.88,5.74Zm-2.84-3.39a7,7,0,0,0,7.47-1.15,6.84,6.84,0,0,0,1.71-2.34,6.95,6.95,0,0,0-3.49-9.19c-1.49-.67-3-1.39-4.71-2.23a38.53,38.53,0,0,1-8.11,11.51c2.35,1.19,4.74,2.33,7.13,3.4Z" fill="#212121"/><path d="M1230,454.58a133.06,133.06,0,0,0,12,8.84,25,25,0,0,0,10.46-13.12,119.39,119.39,0,0,1-10-7.06A36.84,36.84,0,0,1,1230,454.58Z" fill="#fff"/><path d="M1242,465.08l-.76-.49a134.17,134.17,0,0,1-12.12-8.94l-1.55-1.28,1.76-1a35.5,35.5,0,0,0,12-10.91l.84-1.23,1.17.92a116.86,116.86,0,0,0,9.84,7l.9.57-.33,1c-2.34,7.38-7.91,11.86-11,13.87Zm-9.57-10.32c3.07,2.47,6.28,4.81,9.57,7a24,24,0,0,0,8.8-10.88c-2.8-1.82-5.48-3.71-8-5.65A37.89,37.89,0,0,1,1232.4,454.76Z" fill="#212121"/><path d="M1188.66,376a129.64,129.64,0,0,0,2.62,16.05,24.44,24.44,0,0,0,16-3.26A109.34,109.34,0,0,1,1205,376,38.09,38.09,0,0,1,1188.66,376Z" fill="#fff"/><path d="M1194.73,393.61a30.6,30.6,0,0,1-3.62-.22l-1-.12-.22-.95a131.9,131.9,0,0,1-2.65-16.22l-.19-1.89,1.86.39a36.46,36.46,0,0,0,15.77,0l1.52-.34.17,1.54a106.09,106.09,0,0,0,2.24,12.63l.23,1-.84.53A24.79,24.79,0,0,1,1194.73,393.61Zm-2.31-2.88a23,23,0,0,0,13.28-2.65c-.78-3.4-1.41-6.91-1.87-10.46a39.22,39.22,0,0,1-13.59.06A127.28,127.28,0,0,0,1192.42,390.73Z" fill="#212121"/><path d="M1188.6,347.9c-.38,4.13-.63,8.67-.65,13.51a24.86,24.86,0,0,0,16.3.3c0-4.09.24-7.91.58-11.42A38.8,38.8,0,0,1,1188.6,347.9Z" fill="#fff"/><path d="M1196.8,364.35a28.39,28.39,0,0,1-9.3-1.63l-.94-.32v-1c0-4.55.24-9.14.66-13.64l.16-1.79,1.7.62a37.26,37.26,0,0,0,15.65,2.31l1.64-.12-.16,1.64c-.36,3.78-.55,7.58-.57,11.29v1l-.92.32A23.83,23.83,0,0,1,1196.8,364.35Zm-7.45-4a23.36,23.36,0,0,0,13.52.3c0-2.95.18-5.94.43-8.94a39.79,39.79,0,0,1-13.47-2C1189.54,353.31,1189.38,356.87,1189.35,360.4Z" fill="#212121"/><path d="M1203.38,318.78a8.35,8.35,0,0,0-10.5,5.39,97.74,97.74,0,0,0-2.27,9.54,25.05,25.05,0,0,0,16.44,2.23c.82-3.77,1.55-6.14,1.72-6.68A8.33,8.33,0,0,0,1203.38,318.78Z" fill="#fff"/><path d="M1202.06,337.89A27.7,27.7,0,0,1,1190,335l-1-.46.2-1.05a96,96,0,0,1,2.31-9.71,9.73,9.73,0,0,1,18.53,5.94c-.13.42-.85,2.75-1.68,6.55l-.19.86-.85.2A23.7,23.7,0,0,1,1202.06,337.89Zm-9.87-5a23.34,23.34,0,0,0,13.7,1.85c.77-3.4,1.42-5.51,1.55-5.93a7,7,0,0,0-4.49-8.73h0a7,7,0,0,0-8.74,4.49S1193.25,327.65,1192.19,332.91Z" fill="#212121"/><path d="M1219.1,444.42a24.49,24.49,0,0,0,12.9-10.64,99.12,99.12,0,0,1-8.28-9.72,37.44,37.44,0,0,1-15.08,7.48A110.55,110.55,0,0,0,1219.1,444.42Z" fill="#fff"/><path d="M1218.72,446.05l-.63-.68a114.88,114.88,0,0,1-10.6-13l-1.15-1.67,2-.48a35.83,35.83,0,0,0,14.54-7.2l1.12-.93.88,1.17a96.07,96.07,0,0,0,8.16,9.58l.72.75-.51.9a25.73,25.73,0,0,1-13.62,11.26Zm-7.8-13.69a112.17,112.17,0,0,0,8.55,10.42,22.88,22.88,0,0,0,10.79-8.8,102,102,0,0,1-6.79-7.94A38.53,38.53,0,0,1,1210.92,432.36Z" fill="#212121"/><path d="M1201,418.79a24.89,24.89,0,0,0,15.19-6.6,94.72,94.72,0,0,1-4.61-9.92,37.12,37.12,0,0,1-16.12,3.8A113.2,113.2,0,0,0,1201,418.79Z" fill="#fff"/><path d="M1200.17,420.26l-.42-.83a112.65,112.65,0,0,1-5.61-12.88l-.67-1.84,2,0a35.61,35.61,0,0,0,15.52-3.65l1.36-.67.55,1.4a96.08,96.08,0,0,0,4.54,9.77l.5.93-.75.73a26.2,26.2,0,0,1-16,7Zm-2.75-12.87c1.3,3.38,2.76,6.71,4.37,9.92a23.44,23.44,0,0,0,12.65-5.41c-1.32-2.53-2.53-5.12-3.62-7.74A38.24,38.24,0,0,1,1197.42,407.39Z" fill="#212121"/><path d="M1190.61,333.71c-.73,3.82-1.49,8.62-2,14.19a38.8,38.8,0,0,0,16.23,2.39,122.59,122.59,0,0,1,2.22-14.35A25.05,25.05,0,0,1,1190.61,333.71Z" fill="#fff"/><path d="M1202.15,351.78a40.54,40.54,0,0,1-14-2.57l-1-.37.1-1.06c.45-4.88,1.13-9.7,2-14.33l.34-1.78,1.63.79a23.46,23.46,0,0,0,15.52,2.12l2.14-.49-.47,2.14a121,121,0,0,0-2.2,14.2l-.11,1.16-1.17.09C1204,351.75,1203.08,351.78,1202.15,351.78ZM1190.09,347a37.13,37.13,0,0,0,13.48,2c.4-3.86,1-7.65,1.7-11.3a26.1,26.1,0,0,1-13.61-2C1191,339.37,1190.47,343.15,1190.09,347Z" fill="#212121"/><path d="M1188,361.41a142.48,142.48,0,0,0,.71,14.55,38.09,38.09,0,0,0,16.36,0,116.63,116.63,0,0,1-.77-14.25A24.86,24.86,0,0,1,1188,361.41Z" fill="#fff"/><path d="M1197,378.24a41.31,41.31,0,0,1-8.62-.92l-1-.21-.11-1a145.54,145.54,0,0,1-.71-14.69v-2l1.84.64a23.44,23.44,0,0,0,15.38.3l1.86-.65v2a116.82,116.82,0,0,0,.76,14.08l.15,1.24-1.22.27A37.34,37.34,0,0,1,1197,378.24Zm-7-3.44a36.39,36.39,0,0,0,13.56.06c-.38-3.7-.6-7.47-.64-11.27a26.07,26.07,0,0,1-13.51-.29C1189.39,367.17,1189.59,371,1189.94,374.8Z" fill="#212121"/><path d="M1191.28,392a120,120,0,0,0,4.16,14.06,37.12,37.12,0,0,0,16.12-3.8,100.26,100.26,0,0,1-4.27-13.52A24.44,24.44,0,0,1,1191.28,392Z" fill="#fff"/><path d="M1194.47,407.48l-.33-.93a121,121,0,0,1-4.22-14.23l-.44-1.93,2,.24a23,23,0,0,0,15.09-3.05l1.64-1,.46,1.88a97.93,97.93,0,0,0,4.21,13.33l.48,1.19-1.15.57a38.4,38.4,0,0,1-16.72,3.94Zm-1.39-13.92c.93,3.75,2,7.47,3.33,11.1a35.66,35.66,0,0,0,13.39-3.09,101,101,0,0,1-3.42-10.7A25.43,25.43,0,0,1,1193.08,393.56Z" fill="#212121"/><path d="M1201,418.79a109,109,0,0,0,7.66,12.75,37.44,37.44,0,0,0,15.08-7.48,95,95,0,0,1-7.55-11.87A24.89,24.89,0,0,1,1201,418.79Z" fill="#fff"/><path d="M1208,433.12l-.55-.78a113,113,0,0,1-7.74-12.91l-.94-1.84,2-.18a23.39,23.39,0,0,0,14.34-6.22l1.32-1.28.87,1.62a93.14,93.14,0,0,0,7.45,11.7l.79,1.06-1,.84a38.6,38.6,0,0,1-15.65,7.76Zm-4.89-13.19a107.29,107.29,0,0,0,6.08,10,35.91,35.91,0,0,0,12.58-6.14,98.53,98.53,0,0,1-6-9.41A25.91,25.91,0,0,1,1203.15,419.93Z" fill="#212121"/><path d="M1219.1,444.42A118.38,118.38,0,0,0,1230,454.58a36.84,36.84,0,0,0,12.5-11.34,107.67,107.67,0,0,1-10.48-9.46A24.49,24.49,0,0,1,1219.1,444.42Z" fill="#fff"/><path d="M1229.83,456.26l-.74-.61a121.94,121.94,0,0,1-11-10.28l-1.43-1.51,1.95-.74a23,23,0,0,0,12.17-10l.92-1.63,1.3,1.34a105.22,105.22,0,0,0,10.35,9.34l1,.81-.73,1.07a38.22,38.22,0,0,1-13,11.76Zm-8.32-11.34c2.67,2.73,5.56,5.4,8.61,8a35.31,35.31,0,0,0,10.47-9.38,108.67,108.67,0,0,1-8.34-7.49A25.45,25.45,0,0,1,1221.51,444.92Z" fill="#212121"/><path d="M1242,463.42a147.64,147.64,0,0,0,12.91,7.54,37.57,37.57,0,0,0,9.8-13.73,137,137,0,0,1-12.25-6.93A25,25,0,0,1,1242,463.42Z" fill="#fff"/><path d="M1255.1,472.64l-.85-.44c-4.57-2.38-9-4.94-13-7.61l-1.78-1.17,1.79-1.16c2.8-1.81,7.82-5.83,9.89-12.38l.55-1.72,1.53,1a135.29,135.29,0,0,0,12.13,6.85l1.15.58-.49,1.19A38.86,38.86,0,0,1,1255.82,472Zm-10.63-9.26c3.24,2.05,6.66,4,10.2,5.9a36,36,0,0,0,8.23-11.4c-3.4-1.75-6.66-3.58-9.74-5.49A26.47,26.47,0,0,1,1244.47,463.38Z" fill="#212121"/><circle cx="1271.95" cy="470.97" r="16.68" fill="#3aab97"/><circle cx="1271.95" cy="470.97" r="6.95" fill="#f9d285"/><rect x="798.67" y="120.07" width="292.6" height="165.9" rx="13.15" transform="translate(-16.02 99.64) rotate(-5.99)" fill="#212121"/><circle cx="1079.72" cy="188.89" r="2.78" fill="#212121"/><circle cx="813.7" cy="216.79" r="6.22" fill="#cfd8e5"/><rect x="829.5" y="129.99" width="241.07" height="145.01" rx="3.61" transform="translate(-15.94 100.17) rotate(-5.99)" fill="#fff"/><path d="M840.92,288.2a5,5,0,0,1-5-4.48l-14.37-137a5,5,0,0,1,4.45-5.5l232.58-24.38a5,5,0,0,1,5.49,4.45l14.37,137a5,5,0,0,1-4.45,5.5L841.45,288.18Zm218.22-168.64h-.23L826.33,144a2.22,2.22,0,0,0-2,2.44l14.36,137a2.22,2.22,0,0,0,2.45,2L1073.74,261a2.2,2.2,0,0,0,1.49-.82,2.14,2.14,0,0,0,.48-1.63l-14.36-137a2.23,2.23,0,0,0-2.21-2Z" fill="#212121"/><path d="M974.69,191c-3.49,0-6.9-2-9.7-5.67a29.71,29.71,0,0,1-5.39-14.71,1.52,1.52,0,1,1,3-.32,26.63,26.63,0,0,0,4.79,13.2c2.39,3.14,5.21,4.72,7.93,4.43,5.83-.61,9.86-9.72,8.8-19.88a1.51,1.51,0,1,1,3-.32c1.28,12.21-3.77,22.41-11.49,23.22C975.34,191,975,191,974.69,191Z" fill="#212121"/><path d="M931.35,195.51c-3.49,0-6.9-2-9.7-5.67a29.68,29.68,0,0,1-5.39-14.71,1.51,1.51,0,1,1,3-.31,26.73,26.73,0,0,0,4.8,13.19c2.39,3.15,5.21,4.73,7.93,4.43,5.83-.61,9.86-9.71,8.79-19.88a1.52,1.52,0,0,1,1.36-1.66,1.5,1.5,0,0,1,1.66,1.35c1.28,12.2-3.77,22.4-11.49,23.21A7.88,7.88,0,0,1,931.35,195.51Z" fill="#212121"/><path d="M939,242.59a14.37,14.37,0,0,1-4.15-.61c-8.52-2.6-11.57-12.49-11.7-12.91a1.52,1.52,0,0,1,2.91-.87h0c0,.09,2.73,8.77,9.69,10.88,5,1.53,11.18-.65,18.28-6.47A1.51,1.51,0,0,1,956,235C949.76,240,944.08,242.59,939,242.59Z" fill="#212121"/><rect x="836.79" y="328.1" width="260.96" height="219.89" rx="13.37" fill="#fff"/><path d="M1084.37,549.38H850.17a14.78,14.78,0,0,1-14.77-14.76V341.48a14.79,14.79,0,0,1,14.77-14.77h234.2a14.79,14.79,0,0,1,14.77,14.77V534.62A14.78,14.78,0,0,1,1084.37,549.38ZM850.17,329.49a12,12,0,0,0-12,12V534.62a12,12,0,0,0,12,12h234.2a12,12,0,0,0,12-12V341.48a12,12,0,0,0-12-12Z" fill="#212121"/><circle cx="848.25" cy="526.5" r="2.37" fill="#d7d7d7"/><circle cx="866.47" cy="526.5" r="2.37" fill="#d7d7d7"/><path d="M1037.36,344h48.39a12.44,12.44,0,0,1,12.44,12.44V520.7a12.44,12.44,0,0,1-12.44,12.44h-48.39a0,0,0,0,1,0,0V344A0,0,0,0,1,1037.36,344Z" transform="translate(2135.54 877.09) rotate(-180)" fill="#fff"/><path d="M1099.58,534.53H1049.8A13.85,13.85,0,0,1,1036,520.7V356.4a13.85,13.85,0,0,1,13.83-13.84h49.78ZM1049.8,345.34a11.06,11.06,0,0,0-11,11.06V520.7a11.06,11.06,0,0,0,11,11h47V345.34Z" fill="#212121"/><path d="M837.17,344h48.39A12.44,12.44,0,0,1,898,356.4V520.7a12.44,12.44,0,0,1-12.44,12.44H837.17a0,0,0,0,1,0,0V344A0,0,0,0,1,837.17,344Z" fill="#fff"/><path d="M885.56,534.53H835.78v-192h49.78a13.86,13.86,0,0,1,13.83,13.84V520.7A13.85,13.85,0,0,1,885.56,534.53Zm-47-2.78h47a11.07,11.07,0,0,0,11.05-11V356.4a11.07,11.07,0,0,0-11.05-11.06h-47Z" fill="#212121"/><circle cx="889.45" cy="491.28" r="2.37" fill="#3e3e3f"/><circle cx="889.45" cy="509.2" r="2.37" fill="#3e3e3f"/><circle cx="889.45" cy="455.45" r="2.37" fill="#3e3e3f"/><circle cx="889.45" cy="473.36" r="2.37" fill="#3e3e3f"/><circle cx="889.45" cy="401.7" r="2.37" fill="#3e3e3f"/><circle cx="889.45" cy="419.61" r="2.37" fill="#3e3e3f"/><circle cx="889.45" cy="437.53" r="2.37" fill="#3e3e3f"/><circle cx="889.45" cy="365.86" r="2.37" fill="#3e3e3f"/><circle cx="889.45" cy="383.78" r="2.37" fill="#3e3e3f"/><circle cx="884.69" cy="523.72" r="2.37" fill="#3e3e3f"/><circle cx="848.25" cy="523.72" r="2.37" fill="#3e3e3f"/><circle cx="866.47" cy="523.72" r="2.37" fill="#3e3e3f"/><circle cx="848.25" cy="351.34" r="2.37" fill="#3e3e3f"/><circle cx="866.47" cy="351.34" r="2.37" fill="#3e3e3f"/><circle cx="884.69" cy="351.34" r="2.37" fill="#3e3e3f"/><path d="M809.9,578.27a6.82,6.82,0,0,1-2.9-.64,33.25,33.25,0,0,1-18-21.53c-4.81-17.39,4.69-35.24,21.16-39.78A30,30,0,0,1,834,519.84a34,34,0,0,1,10.78,46.75,6.95,6.95,0,0,1-11.69-7.52,20.08,20.08,0,0,0-6.36-27.38,16.16,16.16,0,0,0-12.91-2c-9.08,2.5-14.23,12.68-11.46,22.68A19.37,19.37,0,0,0,812.82,565a7,7,0,0,1-2.92,13.27Z" fill="#fff"/><path d="M809.9,579.66a8.29,8.29,0,0,1-3.49-.77,35.31,35.31,0,0,1-16.06-48.15,31.25,31.25,0,0,1,44.4-12.09A35.38,35.38,0,0,1,846,567.34a8.34,8.34,0,1,1-14-9A18.69,18.69,0,0,0,826,532.87a14.59,14.59,0,0,0-21.11,6,18.3,18.3,0,0,0-1.2,13.15,18,18,0,0,0,9.69,11.71,8.34,8.34,0,0,1-3.5,15.92Zm8.15-63a28.2,28.2,0,0,0-7.54,1A28.58,28.58,0,0,0,792.81,532a32.53,32.53,0,0,0,14.77,44.33,5.52,5.52,0,0,0,2.32.51,5.56,5.56,0,0,0,2.33-10.61A20.77,20.77,0,0,1,801,552.77a21,21,0,0,1,1.39-15.15,17.38,17.38,0,0,1,25.05-7.12,21.48,21.48,0,0,1,6.8,29.32,5.56,5.56,0,0,0,9.35,6A32.59,32.59,0,0,0,833.29,521,29.1,29.1,0,0,0,818.05,516.63Z" fill="#212121"/><path d="M800.43,518.75a8.34,8.34,0,1,0,15.22-6.83c-.93-2.06-1.77-4.08-2.57-6.1a37.55,37.55,0,0,1-16.46,3.74C797.77,512.58,799,515.65,800.43,518.75Z" fill="#fff"/><path d="M808,525.07a9.75,9.75,0,0,1-8.88-5.75h0c-1.36-3-2.65-6.15-3.84-9.26l-.71-1.88h2a35.93,35.93,0,0,0,15.85-3.6l1.35-.66.55,1.4c.91,2.28,1.72,4.2,2.55,6A9.73,9.73,0,0,1,808,525.07Zm-6.35-6.89a7,7,0,0,0,12.69-5.69c-.67-1.5-1.33-3.05-2-4.79a38.69,38.69,0,0,1-13.71,3.2c1,2.45,2,4.9,3.06,7.28Z" fill="#212121"/><path d="M788.91,480.77A131.61,131.61,0,0,0,792,495.35a25.09,25.09,0,0,0,16.54-2.85,120.17,120.17,0,0,1-2.74-11.89A36.93,36.93,0,0,1,788.91,480.77Z" fill="#fff"/><path d="M796.31,497.07a29,29,0,0,1-4.53-.35l-.9-.14-.23-.87A135.34,135.34,0,0,1,787.53,481l-.3-2,2,.43a35.35,35.35,0,0,0,16.25-.15l1.44-.36.26,1.47a119.23,119.23,0,0,0,2.72,11.75l.29,1-.92.54A25.12,25.12,0,0,1,796.31,497.07Zm-3.22-3a23.45,23.45,0,0,0,13.81-2.28c-.88-3.21-1.63-6.4-2.22-9.53a38.07,38.07,0,0,1-14.09.22C791.25,486.39,792.09,490.28,793.09,494.1Z" fill="#212121"/><path d="M810.3,394.56a131.22,131.22,0,0,0-8.71,13.74,24.46,24.46,0,0,0,14.12,8.2,109,109,0,0,1,6.82-11.06A37.89,37.89,0,0,1,810.3,394.56Z" fill="#fff"/><path d="M816.47,418l-1-.16a25.76,25.76,0,0,1-14.93-8.67l-.64-.73.46-.85a131.75,131.75,0,0,1,8.81-13.88l1.11-1.54,1.13,1.53a36.48,36.48,0,0,0,11.78,10.48l1.36.75-.89,1.27a106.62,106.62,0,0,0-6.73,10.92Zm-13.18-9.94A23,23,0,0,0,815,415c1.67-3.07,3.54-6.1,5.55-9.06a39.19,39.19,0,0,1-10.19-9A127.4,127.4,0,0,0,803.29,408.1Z" fill="#212121"/><path d="M828.91,373.57c-3,2.82-6.23,6.05-9.46,9.66a24.89,24.89,0,0,0,12,11c2.73-3,5.45-5.75,8-8.14A39,39,0,0,1,828.91,373.57Z" fill="#fff"/><path d="M831.8,395.94l-.91-.37a26.22,26.22,0,0,1-12.65-11.66l-.49-.87.66-.74c3-3.39,6.25-6.67,9.55-9.75l1.32-1.23.86,1.59A37.26,37.26,0,0,0,840.29,385l1.31,1-1.21,1.12c-2.79,2.59-5.46,5.3-7.94,8ZM821.16,383.4a23.36,23.36,0,0,0,9.9,9.21c2-2.17,4.09-4.31,6.27-6.39a39.62,39.62,0,0,1-8.76-10.42C826,378.23,823.54,380.78,821.16,383.4Z" fill="#212121"/><path d="M859.31,361.63a8.34,8.34,0,0,0-11.42-2.95,97,97,0,0,0-8,5.62,25,25,0,0,0,10.8,12.59c3.11-2.26,5.23-3.56,5.73-3.85A8.34,8.34,0,0,0,859.31,361.63Z" fill="#fff"/><path d="M850.76,378.53l-.78-.42a26.22,26.22,0,0,1-11.42-13.28l-.4-1,.84-.65a99.39,99.39,0,0,1,8.19-5.72,9.75,9.75,0,0,1,13.32,3.44h0a9.75,9.75,0,0,1-3.43,13.32c-.38.23-2.47,1.49-5.61,3.78Zm-9.2-13.78a23.32,23.32,0,0,0,9,10.49c2.83-2,4.72-3.17,5.1-3.39a7,7,0,0,0-7.07-12S845.84,361.53,841.56,364.75Z" fill="#212121"/><path d="M787.53,465.94a24.44,24.44,0,0,0,16.71.63,97.62,97.62,0,0,1,.28-12.76,37.66,37.66,0,0,1-16.24-4.44A112.08,112.08,0,0,0,787.53,465.94Z" fill="#fff"/><path d="M797,469.16a27.89,27.89,0,0,1-10-1.92l-.87-.33,0-.93a114.65,114.65,0,0,1,.76-16.78l.24-2,1.79.95a36,36,0,0,0,15.64,4.28l1.46.05-.12,1.46a95.89,95.89,0,0,0-.28,12.58l0,1-1,.34A23.3,23.3,0,0,1,797,469.16Zm-8.1-4.2a22.84,22.84,0,0,0,13.91.6,100.94,100.94,0,0,1,.21-10.44,38.5,38.5,0,0,1-13.58-3.62A112,112,0,0,0,788.9,465Z" fill="#212121"/><path d="M791,434.76a25,25,0,0,0,15.73,5.16,94.58,94.58,0,0,1,3.15-10.47,37.44,37.44,0,0,1-14.57-7.88A111.89,111.89,0,0,0,791,434.76Z" fill="#fff"/><path d="M805.79,441.33a26.4,26.4,0,0,1-15.58-5.46l-.75-.56.23-.9a114.34,114.34,0,0,1,4.37-13.35l.72-1.82,1.48,1.28a35.72,35.72,0,0,0,14,7.58l1.45.4-.51,1.42a94.32,94.32,0,0,0-3.11,10.32l-.24,1-1,0Zm-13.16-7.15a23.29,23.29,0,0,0,13,4.37c.7-2.76,1.52-5.5,2.45-8.19A38.21,38.21,0,0,1,796,423.87C794.68,427.26,793.56,430.72,792.63,434.18Z" fill="#212121"/><path d="M839.85,364.3c-3.09,2.36-6.85,5.45-10.94,9.27a39,39,0,0,0,10.54,12.57,124.15,124.15,0,0,1,11.2-9.25A25,25,0,0,1,839.85,364.3Z" fill="#fff"/><path d="M839.53,388l-.93-.72a39.91,39.91,0,0,1-10.92-13l-.5-.94.78-.73c3.58-3.34,7.29-6.48,11-9.35l1.45-1.1.68,1.68a23.48,23.48,0,0,0,10.19,11.89l1.92,1.05-1.77,1.3a121.87,121.87,0,0,0-11.08,9.14Zm-8.88-14.11a37.28,37.28,0,0,0,8.73,10.46c2.87-2.61,5.81-5.06,8.78-7.3a26.23,26.23,0,0,1-8.86-10.52C836.37,368.79,833.47,371.26,830.65,373.85Z" fill="#212121"/><path d="M819.45,383.23a142.61,142.61,0,0,0-9.15,11.33,37.89,37.89,0,0,0,12.23,10.88,119.62,119.62,0,0,1,8.89-11.16A24.89,24.89,0,0,1,819.45,383.23Z" fill="#fff"/><path d="M823,407.26l-1.09-.6a39.32,39.32,0,0,1-12.68-11.27l-.6-.82.6-.82a141.81,141.81,0,0,1,9.23-11.45l1.3-1.45.95,1.7A23.47,23.47,0,0,0,832,393l1.82.75-1.32,1.46a117.53,117.53,0,0,0-8.78,11ZM812,394.55a36.52,36.52,0,0,0,10.1,9.06c2.16-3,4.51-6,7-8.85a26.06,26.06,0,0,1-9.9-9.19C816.7,388.48,814.28,391.5,812,394.55Z" fill="#212121"/><path d="M801.59,408.3a120.13,120.13,0,0,0-6.24,13.27,37.44,37.44,0,0,0,14.57,7.88,99.94,99.94,0,0,1,5.79-12.95A24.46,24.46,0,0,1,801.59,408.3Z" fill="#fff"/><path d="M810.79,431.12l-1.24-.33a38.51,38.51,0,0,1-15.11-8.17l-.74-.64.36-.92a121.6,121.6,0,0,1,6.31-13.43l1-1.74,1.31,1.49a23,23,0,0,0,13.3,7.75l1.91.32-.91,1.71a99.31,99.31,0,0,0-5.71,12.76Zm-13.77-10a35.69,35.69,0,0,0,12.05,6.59,101.76,101.76,0,0,1,4.56-10.26,25.62,25.62,0,0,1-11.73-6.84C800.11,414.07,798.47,417.59,797,421.16Z" fill="#212121"/><path d="M791,434.76a107.34,107.34,0,0,0-2.76,14.61,37.66,37.66,0,0,0,16.24,4.44,94.32,94.32,0,0,1,2.25-13.89A25,25,0,0,1,791,434.76Z" fill="#fff"/><path d="M805.79,455.25l-1.32-.05a38.66,38.66,0,0,1-16.84-4.61l-.85-.44.12-.95a111.37,111.37,0,0,1,2.79-14.79l.52-2,1.65,1.23a23.44,23.44,0,0,0,14.85,4.89l1.84-.09-.43,1.8a93,93,0,0,0-2.21,13.69Zm-16-6.68a35.84,35.84,0,0,0,13.48,3.78,98.57,98.57,0,0,1,1.76-11A26,26,0,0,1,791.9,437,108.14,108.14,0,0,0,789.78,448.57Z" fill="#212121"/><path d="M787.53,465.94a119.46,119.46,0,0,0,1.38,14.83,36.93,36.93,0,0,0,16.88-.16,105.5,105.5,0,0,1-1.55-14A24.44,24.44,0,0,1,787.53,465.94Z" fill="#fff"/><path d="M797.13,483.06a40.33,40.33,0,0,1-8.52-.93l-.93-.21-.15-.94a122.7,122.7,0,0,1-1.39-15l-.06-2.08,1.95.75a23.1,23.1,0,0,0,15.76.61l1.76-.61.08,1.86a108.54,108.54,0,0,0,1.52,13.86l.23,1.27-1.26.32A37.07,37.07,0,0,1,797.13,483.06Zm-7-3.46a35.52,35.52,0,0,0,14.05-.05c-.61-3.72-1-7.46-1.25-11.14a25.44,25.44,0,0,1-13.94-.49C789.18,471.74,789.56,475.65,790.14,479.6Z" fill="#212121"/><path d="M792,495.35q1.88,6.94,4.63,14.21a37.55,37.55,0,0,0,16.46-3.74,139.2,139.2,0,0,1-4.55-13.32A25.09,25.09,0,0,1,792,495.35Z" fill="#fff"/><path d="M795.67,511l-.35-.9c-1.82-4.81-3.4-9.64-4.67-14.35l-.56-2.06,2.11.32a23.4,23.4,0,0,0,15.62-2.67l1.56-.92.49,1.74a138.12,138.12,0,0,0,4.5,13.19l.48,1.19-1.16.57A38.61,38.61,0,0,1,796.63,511Zm-1.79-14c1.06,3.69,2.3,7.44,3.7,11.19a36,36,0,0,0,13.73-3.05c-1.38-3.55-2.6-7.1-3.63-10.57A26.51,26.51,0,0,1,793.88,497Z" fill="#212121"/><circle cx="809.37" cy="520.91" r="16.68" fill="#3aab97"/><circle cx="809.37" cy="520.91" r="6.95" fill="#f9d285"/><path d="M908.57,417.53a58.7,58.7,0,0,1,117.4,0Z" fill="#f9d285"/><path d="M969.22,407.64s7.06-9.19,8.74-11.73-.52-3-1.49-2.44a65.83,65.83,0,0,0-11.93,10.45" fill="#212121"/><circle cx="967.27" cy="406.48" r="4.6" fill="#212121"/><path d="M991.63,376.26a1.4,1.4,0,0,1-.78-.24,1.39,1.39,0,0,1-.37-1.93l5-7.3a1.39,1.39,0,1,1,2.3,1.56l-5,7.3A1.41,1.41,0,0,1,991.63,376.26Z" fill="#212121"/><path d="M1000.35,385.47a1.39,1.39,0,0,1-.86-2.49l8.25-6.43a1.39,1.39,0,0,1,1.71,2.19l-8.24,6.44A1.46,1.46,0,0,1,1000.35,385.47Z" fill="#212121"/><path d="M1007.94,394a1.39,1.39,0,0,1-.41-2.71l9.33-2.89a1.39,1.39,0,1,1,.82,2.66l-9.33,2.88A1.51,1.51,0,0,1,1007.94,394Z" fill="#212121"/><path d="M942.2,376.26a1.41,1.41,0,0,1-1.15-.61l-5-7.3a1.39,1.39,0,0,1,2.3-1.56l5,7.3A1.39,1.39,0,0,1,943,376,1.4,1.4,0,0,1,942.2,376.26Z" fill="#212121"/><path d="M933.48,385.47a1.41,1.41,0,0,1-.85-.29l-8.25-6.44a1.39,1.39,0,1,1,1.71-2.19l8.25,6.43a1.39,1.39,0,0,1-.86,2.49Z" fill="#212121"/><path d="M925.89,394a1.51,1.51,0,0,1-.41-.06l-9.33-2.88a1.39,1.39,0,1,1,.82-2.66l9.33,2.89a1.39,1.39,0,0,1-.41,2.71Z" fill="#212121"/><rect x="908.57" y="417.53" width="117.4" height="4.84" fill="#5b6def"/><circle cx="950.2" cy="454.48" r="5.48" fill="#5b6def"/><circle cx="933.52" cy="454.48" r="5.48" fill="#f8bf3b"/><circle cx="916.83" cy="454.48" r="5.48" fill="#f7e0df"/><rect x="1007.08" y="456.95" width="17.57" height="17.57" fill="#f7e0df"/><rect x="987.65" y="456.95" width="17.57" height="17.57" fill="#5b6def"/><rect x="968.22" y="456.95" width="17.57" height="17.57" fill="#212121"/><rect x="1007.12" y="437.74" width="17.57" height="17.57" fill="#3aab97"/><rect x="987.65" y="437.74" width="17.57" height="17.57" fill="#f9d285"/><rect x="968.22" y="437.74" width="17.57" height="17.57" fill="#3e6990"/><rect x="967.65" y="480.72" width="57.94" height="52.17" rx="5.56" fill="#5b6def"/><rect x="909.04" y="480.72" width="49.6" height="52.17" rx="5.56" fill="#fff"/><path d="M953.07,534.29H914.6a7,7,0,0,1-7-7V486.28a7,7,0,0,1,7-6.95h38.47a7,7,0,0,1,6.95,6.95v41.05A7,7,0,0,1,953.07,534.29ZM914.6,482.11a4.17,4.17,0,0,0-4.17,4.17v41.05a4.18,4.18,0,0,0,4.17,4.18h38.47a4.18,4.18,0,0,0,4.17-4.18V486.28a4.17,4.17,0,0,0-4.17-4.17Z" fill="#212121"/><path d="M1384.19,195.18a2.72,2.72,0,0,1-1.76-.63,2.78,2.78,0,0,1-.39-3.9c.26-.31,6.27-7.52,14.53-5a2.78,2.78,0,1,1-1.65,5.31c-4.65-1.45-8.43,3-8.58,3.18A2.79,2.79,0,0,1,1384.19,195.18Z" fill="#212121"/><path d="M1396,217.69a5.83,5.83,0,0,1-5.81-4.13,5.46,5.46,0,0,1,3.06-6.68c3.18-1.42,5.6-5.85,6.26-7.43a1.39,1.39,0,0,1,2.57,1.07c-.12.27-2.87,6.74-7.69,8.9a2.71,2.71,0,0,0-1.53,3.35c.36,1.25,1.62,2.44,4,2.07a1.39,1.39,0,0,1,.43,2.75A8.37,8.37,0,0,1,1396,217.69Z" fill="#212121"/><rect x="1389.33" y="196.36" width="3.96" height="6.53" rx="1.98" transform="translate(67.55 -272.88) rotate(11.48)" fill="#212121"/><rect x="1411.2" y="199.65" width="4.52" height="7.45" rx="2.26" transform="translate(68.74 -277.22) rotate(11.48)" fill="#212121"/><path d="M1384.19,181.63a22.14,22.14,0,0,0,15.43,3.22c9.42-1.28,14.91-4.45,19.35.1s12.43,8.44,25.51,1.79,15,4.9,12.06,11c0,0,9.71-5.09,8.61,4.27s-3.94,12.39-11.22,14.31-14.61,14.54-24.36,15.4-31.59-14.77-46.72-4.65c0,0-3.77,26.42,19.16,35.78s51.41-13,56.2-26.35c0,0,8.71,1.68,12-5.69s2.78-13.48,5.85-14.49,20.61-7.53,14.2-27.68c0,0,9.74-26.09-9.36-30.82,0,0,2.72-18.39-12.42-23.94s-20.45.64-24.36.34-12-8.24-20-7.29-29.47,7.29-31.28,24.05c0,0-16.75-1.57-16.62,15.55S1384.19,181.63,1384.19,181.63Z" fill="#212121"/><path d="M1429.57,197.56a2.77,2.77,0,0,1-2.29-1.21c-1-1.47-4.44-5.23-8.08-4.93a2.78,2.78,0,1,1-.46-5.54c7.54-.61,12.9,7,13.12,7.32a2.79,2.79,0,0,1-2.29,4.36Z" fill="#212121"/><path d="M1397.19,240.93a9.74,9.74,0,0,1-6.33-2.79,1.39,1.39,0,0,1,2-1.94c.05.05,2.23,2.22,4.84,1.92,1.83-.22,3.55-1.62,5.1-4.17a1.39,1.39,0,1,1,2.37,1.44c-2,3.33-4.44,5.18-7.18,5.49A7.31,7.31,0,0,1,1397.19,240.93Z" fill="#fff7ee"/><path d="M1413.46,292.31,1453.7,273a4.63,4.63,0,0,0,2.35-5.71h0s10.3,3.9,9.07,8.27-29,35.64-33.46,34.69-11.39-11.09-17.2-12.81-13.56,12.82-16.18,12.78-7.84-22.67,7.6-27.31C1405.88,282.86,1408.77,290.78,1413.46,292.31Z" fill="#fff"/><path d="M1431.88,311.62a2,2,0,0,1-.51-.06c-2.53-.54-5.26-3.14-8.42-6.15-2.9-2.76-6.19-5.89-8.89-6.69s-7.08,4.38-10,7.83-4.25,5-5.82,5h0c-2.77,0-3.83-6.13-4.09-8-1.2-8.64,1.14-19,11.31-22l1.26-.37.45,1.23c.7,1.92,3.13,7,6.21,8.41l39.7-19.11a3.22,3.22,0,0,0,1.64-4l-1-2.83,2.8,1.07c10.93,4.14,10.18,9,9.92,9.94-.84,3-9.94,13.55-15.84,19.91C1437.27,310.17,1433.31,311.62,1431.88,311.62Zm-18.42-15.77a5.08,5.08,0,0,1,1.39.2c3.34,1,6.73,4.22,10,7.35,2.61,2.49,5.32,5.07,7.08,5.44,1.13-.06,6.7-4.19,17-15.39,8.16-8.83,14.34-16.74,14.78-18.32.49-1.74-2.86-4.11-6.11-5.68a6,6,0,0,1-3.37,4.75l-40.74,19.61-.53-.17c-4.09-1.34-6.84-6.58-7.93-9-4.24,1.67-6.92,5.1-8,10.22-1.26,6.07.32,12.19,1.35,13.77a34.86,34.86,0,0,0,3.5-3.83C1405.32,300.75,1409.41,295.85,1413.46,295.85Zm-15.31,12.95Z" fill="#212121"/><path d="M1424.79,399.18l-13-44.54,1.12-.49c.28-.11,27.24-12,40.38-31.91a1.39,1.39,0,0,1,2.32,1.53c-12.21,18.47-35.09,29.92-40.47,32.43L1426.76,396c29.38-5.39,52.83-37.42,53.07-37.75a1.39,1.39,0,1,1,2.25,1.63,126.4,126.4,0,0,1-16.2,17.65c-9.21,8.35-23.6,18.85-39.89,21.42Z" fill="#212121"/><path d="M1400.77,370.38c-.22.2-22.6,20.29-76.09,17.27-62.3-3.53-108.69-27-109.14-27.2,0,0-3.77-8.9-10.71-10.16,0,0-.47,4.41-.67,8.42-4.77-2-11.76-5.07-15.93-5.66-1.46-.21-3.25,2.38-3.78,4.61-.67,2.79,2.22,4.43,1.59,7.53-.53,2.62-1.7,3.08-2.06,5-.53,2.9.86,5.07,1.18,7.21.68,4.69-2.69,6.67,3.5,8.94,4,1.47,11.08.61,16.28-.14,10.38,5,56.71,25.71,118.17,29.19q6.41.36,12.36.35c58.07,0,83.52-24.31,84.64-25.41Z" fill="#fff"/><path d="M1335.47,417.15c-4.07,0-8.26-.12-12.44-.35-60.14-3.41-105.3-22.93-118.31-29.15-6,.86-12.53,1.49-16.54,0-4.91-1.81-5-3.92-4.54-6.72a10.21,10.21,0,0,0,.14-3.32,12.94,12.94,0,0,0-.51-2,11.15,11.15,0,0,1-.66-5.71,7.62,7.62,0,0,1,1.06-2.58,7,7,0,0,0,1-2.47,4.49,4.49,0,0,0-.72-3,6.41,6.41,0,0,1-.86-4.53c.61-2.6,2.8-6,5.33-5.67,3.84.55,9.68,3,14.46,5,.22-3.37.55-6.49.56-6.53l.16-1.48,1.47.27c6.69,1.21,10.58,8.51,11.52,10.49,4.81,2.36,49.37,23.51,108.16,26.84,27.33,1.55,46.24-3.11,57.29-7.28,12.13-4.58,17.73-9.58,17.78-9.63l1-.9.94,1,20.3,21-1,1C1420,392.39,1394.12,417.15,1335.47,417.15Zm-130.31-32.37.38.18c8.81,4.24,55.87,25.56,117.64,29.06,4.14.23,8.27.35,12.29.35,51.84,0,77.35-19.49,82.65-24.08l-17.46-18c-5.06,3.88-28.52,19.46-76.06,16.78-62.55-3.55-109.23-27.12-109.69-27.36l-.45-.23-.2-.46c0-.08-3-6.92-8.21-8.92-.15,1.64-.38,4.26-.5,6.71l-.09,2-3.32-1.39c-4.44-1.87-10.53-4.44-14.1-4.94-.46.07-1.79,1.66-2.24,3.55a3.83,3.83,0,0,0,.66,2.67,7.17,7.17,0,0,1,1,4.81,9.75,9.75,0,0,1-1.34,3.34,4.54,4.54,0,0,0-.72,1.66,8.75,8.75,0,0,0,.57,4.38,15.66,15.66,0,0,1,.61,2.38,13.13,13.13,0,0,1-.14,4.17c-.31,2-.4,2.51,2.75,3.67,4,1.47,12.13.28,15.6-.22Z" fill="#212121"/><path d="M1284.91,548.28a8.44,8.44,0,1,1,8.43-8.43,1.39,1.39,0,1,1-2.78,0,5.66,5.66,0,1,0-5.65,5.65,1.39,1.39,0,0,1,0,2.78Z" fill="#212121"/><path d="M1355.2,579.52a8.44,8.44,0,1,1,8.43-8.43,1.39,1.39,0,1,1-2.78,0,5.65,5.65,0,1,0-5.65,5.65,1.39,1.39,0,0,1,0,2.78Z" fill="#212121"/><path d="M1339.38,569.38a8.44,8.44,0,1,1,8.43-8.44,1.39,1.39,0,1,1-2.78,0,5.66,5.66,0,1,0-5.65,5.65,1.4,1.4,0,0,1,0,2.79Z" fill="#212121"/><path d="M1320.47,560.05a8.43,8.43,0,1,1,8.43-8.43,1.39,1.39,0,1,1-2.78,0,5.66,5.66,0,1,0-5.65,5.65,1.39,1.39,0,0,1,0,2.78Z" fill="#212121"/><path d="M1301.92,554.3a8.44,8.44,0,1,1,8.43-8.43,1.39,1.39,0,1,1-2.78,0,5.66,5.66,0,1,0-5.65,5.65,1.39,1.39,0,0,1,0,2.78Z" fill="#212121"/><path d="M1573.52,899.65a36.69,36.69,0,0,1-5.82,7.61,55.68,55.68,0,0,1-10.76,8.06,19.52,19.52,0,0,0-3.82,2.83c12.38,11.17,26.49,20.74,32,12.63C1589.72,924.08,1582.87,911.68,1573.52,899.65Z" fill="#fff"/><path d="M1579.3,935.19c-6.22,0-15.33-5.38-27.11-16l-1.08-1,1-1a21.19,21.19,0,0,1,4.08-3,55.21,55.21,0,0,0,10.5-7.85,35.88,35.88,0,0,0,5.6-7.32l1-1.79,1.27,1.63c12,15.47,16,26.49,11.67,32.77a7.93,7.93,0,0,1-5.82,3.55A9,9,0,0,1,1579.3,935.19Zm-24.09-17c14.09,12.49,21.32,14.64,24.93,14.21A5.17,5.17,0,0,0,1584,930c3.35-4.9-.23-14.53-10.34-27.9a38.75,38.75,0,0,1-5,6.14,56.55,56.55,0,0,1-11,8.26A29.23,29.23,0,0,0,1555.21,918.15Z" fill="#212121"/><path d="M1568,969.62a15.93,15.93,0,0,1-7-1.5l1.3-2.45c.23.11,5.6,2.83,12.76-.41l1.15,2.53A19.72,19.72,0,0,1,1568,969.62Z" fill="#c3c3c3"/><path d="M1571.75,958.4a14.92,14.92,0,0,1-7.49-2l1.49-2.35a11.91,11.91,0,0,0,10.82.52l1.16,2.53A14.34,14.34,0,0,1,1571.75,958.4Z" fill="#c3c3c3"/><path d="M1423.23,1039.34c-5.32-3.63-5-10.06-4.14-12.95l2.66.82c-.08.26-1.89,6.46,3,9.83Z" fill="#c3c3c3"/><path d="M1411.6,1040.1c-6.88-4.54-5.26-10-5.19-10.25l2.66.81c0,.16-1,3.78,4.06,7.12Z" fill="#c3c3c3"/><path d="M1007.87,969.59s25.6-25,116.14-5.29,125.91,129.15,28.24,164.92S933.08,1158.57,940.18,1094s82-84,82-84Z" fill="#fff"/><path d="M1034.92,1152.27c-35.16,0-63.33-7-79.68-19.78-12.64-9.9-18.17-22.9-16.44-38.64,2.06-18.71,11.42-45.55,44.3-67.23a149.12,149.12,0,0,1,37.31-17.56l-14.14-39.85.63-.62c1.07-1,27.17-25.24,117.41-5.65,24.38,5.29,45.79,17.14,61.92,34.27,15.21,16.17,24.33,35.83,25.67,55.37,1.14,16.51-2.36,57.14-59.17,78-36.38,13.32-76.45,21-112.83,21.69C1038.23,1152.25,1036.57,1152.27,1034.92,1152.27ZM1009.51,970,1024,1011l-1.47.38a143.35,143.35,0,0,0-38,17.66c-17.62,11.63-39.39,32.38-43,65.16C940,1108.87,945.12,1121,957,1130.3c16.61,13,46,19.84,82.89,19.14,36.07-.65,75.82-8.3,111.92-21.52,38.76-14.2,59.67-41.59,57.36-75.14-1.3-18.91-10.15-38-24.93-53.66-15.74-16.72-36.65-28.29-60.48-33.47C1042.88,948.1,1014.07,966.54,1009.51,970Z" fill="#212121"/><path d="M973.79,974.8c3.85-12.47,0-28.71,0-28.71,14.46,0,30.6,15.55,30.6,15.55" fill="#fff"/><path d="M975.12,975.21l-2.66-.82c3.7-11.95,0-27.82,0-28L972,944.7h1.76c14.85,0,30.89,15.29,31.57,15.94l-1.93,2c-.15-.15-14.63-13.92-27.91-15.09C976.41,952.19,978.33,964.84,975.12,975.21Z" fill="#212121"/><path d="M991.21,965.67s-11.64-20.53-17.42-19.58-3,28.39-3,28.39" fill="#fff"/><path d="M969.4,974.62c0-.07-.7-7-.67-14,0-10.33,1.58-15.39,4.84-15.92,6.4-1,16.83,16.7,18.85,20.26L990,966.36c-5.24-9.24-12.64-18.91-15.77-18.91H974c-2.39.4-3.25,13-1.84,26.88Z" fill="#212121"/><path d="M1027.23,960.79s17.1-21.14,37-21.22c0,0-5.53,17-1.8,28.4" fill="#fff"/><path d="M1061.1,968.4c-3.11-9.52-.09-22.53,1.25-27.37-18.2,1.34-33.88,20.43-34,20.63l-2.16-1.75a75.84,75.84,0,0,1,11.26-10.8c9.1-7.11,18.37-10.9,26.82-10.93h1.92l-.59,1.83c-.06.17-5.35,16.75-1.81,27.53Z" fill="#212121"/><path d="M1045,964.6s14.48-26.23,19.2-25,.11,30.89.11,30.89Z" fill="#fff"/><path d="M1065.47,972.26,1043,965.43l.83-1.5c0-.06,3.69-6.68,7.88-13.06,7.9-12,10.94-13.15,12.88-12.65s3.93,3,2.86,17.35c-.56,7.54-1.72,15-1.73,15.11Zm-18.38-8.49,16.12,4.9c2.07-14.09,2.38-26.62.64-27.77h0C1061.69,940.9,1054.18,951.17,1047.09,963.77Z" fill="#212121"/><path d="M930.06,1008.38s39.37-47.79,77.81-49.22c66.18-2.47,98.2,38.66,98.2,38.66,10.83,19.57-44.25,72.69-82.78,71.87C985.66,1068.88,943.66,1057.18,930.06,1008.38Z" fill="#fff"/><path d="M1024.17,1071.09h-.91c-51.51-1.11-83.32-22.08-94.54-62.33l-.2-.7.46-.56a205.29,205.29,0,0,1,24.68-24.26c13.53-11.2,33.91-24.71,54.16-25.46,34.53-1.28,59.68,9.41,74.69,18.61,16.31,10,24.32,20.16,24.65,20.59l.12.18c3.06,5.52,1.62,13.49-4.16,23.05-7.06,11.69-19.91,24.52-34.38,34.32C1052.93,1065.23,1037.14,1071.09,1024.17,1071.09Zm-92.58-62.38c11,38.47,41.89,58.52,91.73,59.59,26.43.6,63.31-26.16,77.42-49.53,5.12-8.48,6.6-15.64,4.16-20.17-1.65-2.05-33.72-40.42-97-38.05C972.75,961.86,936.13,1003.4,931.59,1008.71Z" fill="#212121"/><path d="M1064.23,1055.8s-17.68,13.09-40.94,13.89c-28.21,1-58.9-7.34-78.22-31.26,0,0,26.63-28.64,50.93-27.61S1054.93,1031.33,1064.23,1055.8Z" fill="#fff"/><path d="M1018.86,1071.16c-31.31,0-58.42-11.48-74.87-31.85l-.76-.94.82-.88a125.6,125.6,0,0,1,16.56-14.38c13.12-9.52,25.07-14.12,35.44-13.68,25,1.06,60,20.9,69.48,45.88l.38,1-.85.63c-.73.54-18.3,13.35-41.73,14.16C1021.83,1071.13,1020.34,1071.16,1018.86,1071.16Zm-71.93-32.65c16.77,20,44.48,30.89,76.31,29.79,19.71-.68,35.5-10.46,39.3-13-9.67-23.52-42.84-42.08-66.6-43.08-12.15-.51-25,6.85-33.66,13.13A128.27,128.27,0,0,0,946.93,1038.51Z" fill="#212121"/><rect x="1014.47" y="986.26" width="4.81" height="7.93" rx="2.4" transform="translate(217.4 -182.56) rotate(11.48)" fill="#212121"/><rect x="988.81" y="985.06" width="4.81" height="7.93" rx="2.4" transform="translate(216.65 -177.47) rotate(11.48)" fill="#212121"/><path d="M989,982.78a3,3,0,0,1-2.46-4.65c1.82-2.77,5.9-3.07,6.7-3.1a3,3,0,0,1,.25,5.91,4.74,4.74,0,0,0-2.09.54A2.86,2.86,0,0,1,989,982.78Z" fill="#212121"/><path d="M1023.29,983.15a3,3,0,0,1-2.76-1.89,6.36,6.36,0,0,0-1.87-.86,3,3,0,0,1,1.49-5.72c.77.2,4.7,1.35,5.9,4.44a3,3,0,0,1-1.7,3.83A2.84,2.84,0,0,1,1023.29,983.15Z" fill="#212121"/><path d="M997.19,1034.23a1.48,1.48,0,0,1-1.11-.5l-4.7-5.4a1.47,1.47,0,0,1-.36-1.14l.84-7.61a1.48,1.48,0,1,1,2.94.33l-.77,7,4.28,4.91a1.48,1.48,0,0,1-.14,2.09A1.5,1.5,0,0,1,997.19,1034.23Z" fill="#212121"/><path d="M987.81,1033.59a1.47,1.47,0,0,1-1.06-2.51l4.69-4.76a1.48,1.48,0,0,1,2.11,2.07l-4.69,4.76A1.49,1.49,0,0,1,987.81,1033.59Z" fill="#212121"/><path d="M989.93,1010.48s7-2,11.5.73-6.84,10.23-7.85,10.19S983.9,1012.46,989.93,1010.48Z" fill="#212121"/><path d="M1006.3,1022.88l-.11-3c.25,0,25.76-1.23,41.18-18.08l2.18,2C1033.28,1021.62,1007.4,1022.84,1006.3,1022.88Z" fill="#212121"/><path d="M1009.82,1030.47l-.11-3c.21,0,20.78-.85,29.91-8.95l2,2.22C1031.66,1029.59,1010.71,1030.44,1009.82,1030.47Z" fill="#212121"/><path d="M983.14,1020.41a49.16,49.16,0,0,1-29.6-15.8l2.19-2a47,47,0,0,0,27.68,14.85Z" fill="#212121"/><path d="M975.77,1026.36c-5.93,0-15.8-1.07-22-7.46l2.12-2.06c8.15,8.35,24.36,6.34,24.52,6.32l.39,2.93A41.86,41.86,0,0,1,975.77,1026.36Z" fill="#212121"/><path d="M942.58,1083.45S945.8,1124,983.65,1131s27.44,21.13,27.44,21.13-7.81-1.94-30.69-3.32S924.71,1149.68,942.58,1083.45Z" fill="#fff"/><path d="M1011.66,1153.71l-.9-.22c-.08,0-8-1.93-30.44-3.29l-3.84-.2c-12.49-.63-26.65-1.35-34.56-12.24-7.57-10.42-7.79-28.3-.68-54.67l2.09-7.73.64,8c0,.4,3.6,39.57,39.93,46.3,16.77,3.1,26.6,8,29.22,14.66a9.37,9.37,0,0,1-.91,8.67Zm-69.33-63.62c-5.22,22.06-4.61,37.16,1.84,46,7.13,9.82,20.58,10.5,32.45,11.1,1.31.07,2.6.13,3.87.21,18.45,1.11,27.12,2.58,29.9,3.14a6.62,6.62,0,0,0,.13-5.3c-1.57-3.88-7.55-9.27-27.12-12.9C954.34,1127,945.12,1102.1,942.33,1090.09Z" fill="#212121"/><path d="M986.1,1131.49c-4,4.29-4.29,11.36-3.34,17.48a140.62,140.62,0,0,1,24.83,3.74,5.22,5.22,0,0,0,5.39-8.29C1009.33,1139.78,1001.71,1134.69,986.1,1131.49Z" fill="#fff"/><path d="M1008.92,1154.26a6.74,6.74,0,0,1-1.66-.21,140.44,140.44,0,0,0-24.59-3.69l-1.11-.08-.18-1.1c-.72-4.68-1.21-13.33,3.7-18.63l.53-.58.77.16c13.55,2.78,22.87,7.3,27.69,13.44a6.61,6.61,0,0,1-5.15,10.69Zm-24.94-6.6a141.09,141.09,0,0,1,23.95,3.7,3.84,3.84,0,0,0,4-6.08c-4.32-5.49-12.82-9.61-25.27-12.26C983.35,1137.14,983.46,1143.53,984,1147.66Z" fill="#212121"/><path d="M1127.53,1112.91c-.18-10.67-14.22-14.46-19.8-5.36-7.16,11.69-17.16,22.14-30.48,23.94-27.43,3.72-46.16,7-54.49,16.85a4.35,4.35,0,0,0,2.73,7.06c19.65,3,79.91,10.6,93.76-5.92C1126,1141.44,1127.78,1127.11,1127.53,1112.91Z" fill="#fff"/><path d="M1077,1161.16l-2.43,0c-19.22-.21-39.11-2.82-49.25-4.36a5.8,5.8,0,0,1-4.53-3.69,5.59,5.59,0,0,1,1-5.65c8.71-10.32,27.58-13.56,55.36-17.33,11-1.49,20.93-9.32,29.48-23.29a12.08,12.08,0,0,1,22.38,6.07h0c.31,17.69-2.59,30.3-8.61,37.48S1099.73,1161.16,1077,1161.16Zm39.82-57.33a9,9,0,0,0-7.86,4.45c-9,14.71-19.61,23-31.49,24.59-26.31,3.56-45.55,6.83-53.6,16.37a2.82,2.82,0,0,0-.48,2.87,3,3,0,0,0,2.35,1.92c10.07,1.53,29.81,4.13,48.86,4.33,23,.27,38-3.13,43.62-9.78s8.25-18.64,8-35.64h0a9.09,9.09,0,0,0-6.83-8.77A9.67,9.67,0,0,0,1116.78,1103.83Z" fill="#212121"/><path d="M1045.62,1136.9c-10.56,2.6-18.28,6-22.85,11.44a4.35,4.35,0,0,0,2.72,7.06c6.91,1,18.83,2.67,32,3.61A49.62,49.62,0,0,0,1045.62,1136.9Z" fill="#fff"/><path d="M1059.25,1160.53l-1.88-.13c-13.61-1-25.94-2.69-32.09-3.62a5.8,5.8,0,0,1-4.53-3.69,5.59,5.59,0,0,1,1-5.65c4.48-5.31,11.76-9,23.59-11.89l.81-.2.55.61a51.16,51.16,0,0,1,12.18,22.74Zm-14.1-22.08c-10.61,2.7-17.4,6.14-21.32,10.79a2.82,2.82,0,0,0-.48,2.87,3,3,0,0,0,2.35,1.92c5.81.88,17.21,2.47,30,3.45A48.6,48.6,0,0,0,1045.15,1138.45Z" fill="#212121"/><path d="M1161.16,1145.55s62.54-24.51,54.85-65.48-47.9-42.4-62.49-26.26c-22.19,24.56,13,61.47,3.6,70s-27.1,12.88-21.77,21.76S1161.16,1145.55,1161.16,1145.55Z" fill="#fff"/><path d="M1144.47,1150.84c-4.28,0-8.23-1.13-10.32-4.61a7,7,0,0,1-1-5.45c1.08-4.25,6.26-7.28,12.27-10.8a66,66,0,0,0,10.74-7.26c2.91-2.63-.1-10.07-3.58-18.7-6-15-14.31-35.44-.12-51.14,7.9-8.74,22.56-12.27,35.65-8.58,8.9,2.51,24.53,10.46,29.23,35.51,3.25,17.3-5.41,34.41-25.06,49.46a143.14,143.14,0,0,1-30.62,17.56C1161,1147.15,1152.18,1150.84,1144.47,1150.84Zm33-105.22c-9,0-17.65,3.28-22.94,9.13-13,14.4-5.45,33.16.64,48.23,4,10,7.21,17.87,2.86,21.81a68.13,68.13,0,0,1-11.2,7.59c-5.23,3.07-10.18,6-11,9.09a4.24,4.24,0,0,0,.67,3.33c3.85,6.43,18.68,1.8,24.06-.53l.05,0c.61-.24,61.38-24.56,54-63.92-4.42-23.59-19-31-27.26-33.36A36.68,36.68,0,0,0,1177.49,1045.62Z" fill="#212121"/><path d="M1158.23,1140.46a19.91,19.91,0,0,0-13.15-8.15,1.74,1.74,0,0,1-.48-.22c-7,4.12-12.57,7.91-9.25,13.43,5,8.32,23.31,1.06,25.58.12A27.15,27.15,0,0,0,1158.23,1140.46Z" fill="#fff"/><path d="M1144.46,1150.87c-4.27,0-8.21-1.15-10.31-4.64a7,7,0,0,1-1-5.44c1-3.87,5.44-6.77,10.72-9.9l.63-.37.67.31.26.14a21.35,21.35,0,0,1,13.92,8.7h0a27.57,27.57,0,0,1,2.84,5.45l.52,1.28-1.27.53C1159.23,1147.85,1151.41,1150.87,1144.46,1150.87Zm.23-17.22c-4.32,2.57-8.14,5.12-8.82,7.83a4.22,4.22,0,0,0,.67,3.32c3.37,5.62,15.19,2.9,22.55.08a23,23,0,0,0-2-3.63h0a18.4,18.4,0,0,0-12.24-7.57Z" fill="#212121"/><path d="M1210,1048s58.6,21.83,47.94,63.62-62.59,43.7-81,19.46-17.5-50-17.5-50,26.51-11.08,54.43-9.86a51.43,51.43,0,0,0-3.4-9.16Z" fill="#fff"/><path d="M1212,1148.2c-14.6,0-28.31-6-36.12-16.26-18.47-24.35-17.81-49.79-17.78-50.86l0-.89.83-.34c.26-.11,25.88-10.67,53.09-10a42.44,42.44,0,0,0-2.75-7l-.16-.29-.58-16.48,2,.72a114.34,114.34,0,0,1,28.35,16.36c17.88,14.34,24.95,31.25,20.45,48.91-4.74,18.58-18.1,31.39-36.65,35.14A53.84,53.84,0,0,1,1212,1148.2Zm-51.12-66.13a85.81,85.81,0,0,0,17.21,48.19c9.07,12,26.76,17.63,44,14.14,17.46-3.53,30-15.6,34.51-33.1,9.14-35.84-35.17-56.93-45.13-61.18l.41,11.62a53.38,53.38,0,0,1,3.36,9.17l.49,1.83-1.89-.09C1189.37,1071.59,1165.64,1080.23,1160.9,1082.07Z" fill="#212121"/><path d="M1213.94,1071.27c-27.92-1.22-54.43,9.86-54.43,9.86s-.89,25.73,17.5,50a35.88,35.88,0,0,0,8.93,8.25,4,4,0,0,0,6-4.62c-1.08-3.09-1.93-6.31-1.79-8.57.33-5.81,11.61,2.4,13.81,0s-12.38-21.08-7.31-23.41,16,5,18.58-1.21-10.91-12.1-8.91-14.93,20.78-10.7,19.4-12.87S1213.94,1071.27,1213.94,1071.27Z" fill="#fff"/><path d="M1188.18,1141.42a5.46,5.46,0,0,1-3-.91,37.2,37.2,0,0,1-9.28-8.57c-18.47-24.35-17.81-49.79-17.78-50.86l0-.89.83-.34c.26-.11,27.09-11.17,55-10,3.35.1,11.27.61,12.88,3.12a1.87,1.87,0,0,1,.22,1.5c-.47,1.81-3.55,3.63-11,7.65-3.26,1.76-7.68,4.15-8.58,5.17.24.68,2,2.24,3.11,3.28,3.26,2.94,7.72,7,5.87,11.47-1.94,4.74-7.41,3.49-11.81,2.49-2.84-.64-5.78-1.31-7.47-.54a.34.34,0,0,0-.2.23c-.63,1.88,2.55,7.87,4.65,11.84,3.32,6.26,4.85,9.34,3.31,11s-4.36.72-7.61-.4c-1.81-.63-4.84-1.67-5.63-1.14-.16.11-.2.47-.22.68-.1,1.75.5,4.53,1.72,8a5.3,5.3,0,0,1-1.74,6A5.39,5.39,0,0,1,1188.18,1141.42Zm-27.28-59.35a85.81,85.81,0,0,0,17.21,48.19,34.42,34.42,0,0,0,8.6,7.92,2.57,2.57,0,0,0,3.07-.1,2.53,2.53,0,0,0,.83-2.89c-1.37-3.9-2-7-1.87-9.11a3.41,3.41,0,0,1,1.45-2.83c1.93-1.3,4.91-.27,8.07.82,1.41.48,3.69,1.27,4.52,1.16-.12-1.33-2.18-5.21-3.57-7.83-3.54-6.66-5.78-11.24-4.83-14a3.1,3.1,0,0,1,1.67-1.87c2.55-1.17,6-.39,9.25.36,4.71,1.07,7.64,1.55,8.62-.84,1.11-2.69-2.37-5.83-5.16-8.34s-5.15-4.66-3.59-6.86c1-1.42,4.31-3.25,9.6-6.1,3.19-1.73,7.83-4.23,9.27-5.54-1.5-.71-5.81-1.38-10.14-1.51h0C1189.37,1071.59,1165.64,1080.23,1160.9,1082.07Z" fill="#212121"/><path d="M189.42,291.53s-10.36-12.19-12,3.22c-1.48,13.74,9.78,14.33,9.78,14.33,0,19.23,8.78,24.71,8.78,24.71.41,14.39-11.23,28.57-11.23,28.57s22.89,11.85,35,8.84a40.25,40.25,0,0,0,19.32-11.47c.42-1.17-11.28-2.44-8.68-20.93,0,0,13.63-4.3,19.36-20.95,6.89-20,6.53-32.87,4.85-43.75,0,0-52.63,15.36-63.67,9.52Z" fill="#fff"/><path d="M215.29,373.08c-12.72,0-30.36-9.05-31.2-9.49a1.38,1.38,0,0,1-.43-2.11c.11-.14,10.94-13.51,10.92-27-2.09-1.69-8.48-8.15-8.78-24.21a12.42,12.42,0,0,1-6.94-4c-2.41-2.83-3.37-6.77-2.84-11.71.55-5.13,2.1-8,4.72-8.83,2.82-.87,5.88,1.2,7.81,2.91l1-5.32a1.41,1.41,0,0,1,.77-1,1.38,1.38,0,0,1,1.25,0c8.64,4.57,48.14-5.39,62.63-9.62a1.39,1.39,0,0,1,1.77,1.12c1.59,10.29,2.25,23.61-4.91,44.41-5.13,14.89-16.23,20.25-19.41,21.51-1.57,13,4.41,16.35,7,17.8.93.52,2.2,1.24,1.72,2.58a1.2,1.2,0,0,1-.25.44,41.3,41.3,0,0,1-20,11.92A20.8,20.8,0,0,1,215.29,373.08Zm-28.42-11.22c5.22,2.51,22.8,10.41,32.54,8a39.62,39.62,0,0,0,17.61-10c-3.05-1.73-10.13-6.2-8-21.28a1.37,1.37,0,0,1,.95-1.13c.13,0,13.05-4.33,18.47-20.07,6.6-19.19,6.37-31.78,5-41.52-8.54,2.42-48.67,13.38-61.48,9.64l-1.19,6.27a1.38,1.38,0,0,1-2.42.64c-1.07-1.25-4.62-4.68-6.82-4-1.38.43-2.36,2.73-2.76,6.47-.45,4.13.28,7.36,2.16,9.59a10,10,0,0,0,6.3,3.21,1.39,1.39,0,0,1,1.32,1.38c0,18.09,8.05,23.48,8.13,23.53a1.43,1.43,0,0,1,.65,1.14C197.7,346,189.8,357.89,186.87,361.86Z" fill="#212121"/><rect x="206.85" y="288.7" width="4.15" height="7.09" rx="2.07" transform="translate(-13.63 10.24) rotate(-2.72)" fill="#212121"/><rect x="239.69" y="289.55" width="4.15" height="7.09" rx="2.07" transform="translate(74.69 -48.14) rotate(13.43)" fill="#212121"/><path d="M250.83,288a1.41,1.41,0,0,1-1.26-.79c-3.24-6.74-8.41-4.59-9-4.32a1.39,1.39,0,0,1-1.19-2.52c.08,0,8.17-3.75,12.69,5.63a1.4,1.4,0,0,1-.65,1.86A1.42,1.42,0,0,1,250.83,288Z" fill="#212121"/><path d="M200.52,282a1.45,1.45,0,0,1-.63-.15,1.39,1.39,0,0,1-.6-1.87,8.84,8.84,0,0,1,5-4.14c2.32-.69,4.87-.25,7.56,1.3a1.39,1.39,0,0,1-1.39,2.41,6.83,6.83,0,0,0-5.38-1,6,6,0,0,0-3.3,2.73A1.41,1.41,0,0,1,200.52,282Z" fill="#fff"/><path d="M225.41,309.08a1.39,1.39,0,0,1-.18-2.76c2.55-.33,3.24-1,3.42-1.33.5-1-.78-3.37-1.92-5.47-2.66-4.92.16-10.59.28-10.83a1.39,1.39,0,0,1,2.48,1.26c0,.05-2.28,4.62-.32,8.25,1.61,3,3.13,5.76,2,8.06-.79,1.53-2.54,2.43-5.53,2.81Z" fill="#212121"/><path d="M211.73,317.47s10.08.56,12.16,1.28a30.61,30.61,0,0,1,5.54,3.27s-4.18,4.57-9.87,2.75A13.43,13.43,0,0,1,211.73,317.47Z" fill="#fff"/><path d="M222.28,326.6a10.42,10.42,0,0,1-3.15-.5,14.74,14.74,0,0,1-8.69-8.13,1.36,1.36,0,0,1,.17-1.32,1.39,1.39,0,0,1,1.2-.57c1.05.06,10.34.6,12.53,1.36a30.69,30.69,0,0,1,5.91,3.46,1.38,1.38,0,0,1,.56,1,1.43,1.43,0,0,1-.35,1.08A12.06,12.06,0,0,1,222.28,326.6ZM214.19,319a11.47,11.47,0,0,0,5.79,4.43,8,8,0,0,0,7.18-1.31,20.37,20.37,0,0,0-3.73-2.07A64,64,0,0,0,214.19,319Z" fill="#212121"/><path d="M256.42,364.4s-7.29-1-4.91,6.05S256.47,366.44,256.42,364.4Z" fill="#fff"/><path d="M253.16,374.18c-1.87,0-2.69-2.44-3-3.28-.87-2.59-.71-4.63.49-6.07,1.9-2.3,5.53-1.86,5.94-1.81a1.39,1.39,0,0,1,1.19,1.35c0,.61-1,9.21-4.25,9.78Zm1.74-8.41a3.1,3.1,0,0,0-2.09.84c-.66.8-.35,2.29,0,3.4a8,8,0,0,0,.41,1A19.36,19.36,0,0,0,254.9,365.77Z" fill="#212121"/><path d="M252.24,376.08l8-.19-.69-28.17a4,4,0,0,0-4.11-3.91h0a4,4,0,0,0-3.92,4.11Z" fill="#fff"/><path d="M252.24,377.47a1.39,1.39,0,0,1-1.39-1.35L250.16,348a5.41,5.41,0,0,1,10.81-.27l.69,28.16a1.38,1.38,0,0,1-1.35,1.43l-8,.19Zm3.33-32.28h-.07a2.63,2.63,0,0,0-2.56,2.7l.65,26.77,5.26-.13-.66-26.77A2.63,2.63,0,0,0,255.57,345.19Z" fill="#212121"/><path d="M277.58,371.69a63.26,63.26,0,0,0-8.9-6.56c-1.67-1-4-8.26-8.41-9-1.12-.19.72,7.81-.33,7.6-6.95-1.35-11.8,2.76-13.47,4.18-3.8,3.23,5,2.56,5,2.56Z" fill="#fff"/><path d="M277.58,373.08h-.06l-26-1.23c-4.18.3-6.62-.31-7.25-1.82-.42-1,0-2.11,1.29-3.2,1.63-1.38,6.4-5.45,13.3-4.69,0-.62-.11-1.4-.17-2-.28-2.92-.37-4.24.45-5a1.58,1.58,0,0,1,1.36-.4c3.56.61,5.77,4.29,7.38,7a12.74,12.74,0,0,0,1.51,2.22,64.73,64.73,0,0,1,9.12,6.72,1.39,1.39,0,0,1-.94,2.42Zm-26.07-4h.07l21.89,1a59.65,59.65,0,0,0-5.51-3.78c-.86-.52-1.53-1.63-2.45-3.17-1.08-1.8-2.49-4.14-4.2-5.17,0,.63.11,1.36.16,1.9.28,2.89.36,4.09-.45,4.82a1.55,1.55,0,0,1-1.35.38c-6.3-1.23-10.66,2.47-12.3,3.87a18.23,18.23,0,0,0,4,.12Z" fill="#212121"/><path d="M225.41,369.29l66,2.4s-2.6,93.55-2.91,96.06-59,4.61-63,4S225.41,369.29,225.41,369.29Z" fill="#fff"/><path d="M229.22,473.23a33.61,33.61,0,0,1-4-.14c-1.82-.28-3.7-.58-2.67-52.85.49-25.25,1.49-50.75,1.5-51l.06-1.38,68.7,2.5,0,1.38c-.11,3.82-2.6,93.64-2.92,96.19a1.68,1.68,0,0,1-.69,1.14c-.62.46-2.49,1.88-32,3.3C247.19,472.85,235.42,473.23,229.22,473.23Zm-3.07-2.82c7.17.57,55.23-1.63,61-3.44.35-6.72,1.95-62.79,2.82-93.94l-63.18-2.3C225.34,407.07,224,464.21,226.15,470.41Z" fill="#212121"/><path d="M125.78,439.49s-1.39,60.1,28.85,59.25S224.42,454,224.42,454l-.14-.18c5.21-2.13,18.39-8,23.26-13.4,3.74-4.12,1.54-7,1.54-7,.09-2.64,1.06-4.88-1.74-6.41s-4,.71-2.8-1.52c1.24-2.4-1.67-8.22-5.56-3.58a22.53,22.53,0,0,1-8.21,5.77l-7.06,4.53-.08-9.34a21.17,21.17,0,0,0-9.41,18.5c-3.68,3.5-45.32,42.69-52.9,29.33-7.92-14-3.69-29.6-3.69-29.6" fill="#fff"/><path d="M154,500.14a20.66,20.66,0,0,1-15-6.31c-6.47-6.43-10.89-17.57-13.14-33.08a144,144,0,0,1-1.45-21.29,1.39,1.39,0,0,1,2.78.06c0,.38-.7,38,13.77,52.34a18,18,0,0,0,13.65,5.49c27.54-.77,63.72-38.77,68.32-43.72l0-.15a1.35,1.35,0,0,1,.82-.92c1.77-.72,17.47-7.23,22.75-13.05,2.81-3.09,1.59-5.05,1.44-5.26a1.51,1.51,0,0,1-.26-.87c0-.56.07-1.1.13-1.62.22-2.08.22-2.77-1.14-3.51a2.7,2.7,0,0,0-2-.36,1.61,1.61,0,0,1-1.71-.54c-.57-.77-.22-1.46.31-2.49a3,3,0,0,0-1-3.13c-.74-.49-1.66.32-2.3,1.08a23.68,23.68,0,0,1-8.6,6.1l-7,4.48a1.39,1.39,0,0,1-2.14-1.16l-.06-6.59a19.84,19.84,0,0,0-6.65,15.7,1.41,1.41,0,0,1-.43,1.05c-1.7,1.62-10.7,10.09-20.94,18-13.54,10.42-23.34,15.26-29.12,14.41a6.6,6.6,0,0,1-5-3.37c-8.11-14.31-4-30-3.82-30.66a1.39,1.39,0,0,1,2.69.73c0,.15-4,15.27,3.55,28.56a3.86,3.86,0,0,0,3,2c9.78,1.44,34.12-18.74,47.3-31.23a22.37,22.37,0,0,1,10.11-19.11,1.36,1.36,0,0,1,1.38,0,1.38,1.38,0,0,1,.71,1.19l.06,6.83,4.94-3.17.18-.1a21.27,21.27,0,0,0,7.71-5.39c2.79-3.33,5.27-2.08,6-1.62a5.94,5.94,0,0,1,2.24,5.72,6,6,0,0,1,1.88.67c3.06,1.67,2.8,4.21,2.58,6.25,0,.34-.07.68-.09,1,.61,1.18,1.66,4.35-1.92,8.29-5.2,5.72-18.76,11.67-23,13.44a.76.76,0,0,1-.11.14,234.36,234.36,0,0,1-23.72,22.19c-18.38,14.89-34.21,22.62-47.07,23Z" fill="#212121"/><path d="M1424.64,402.49l-7,2.37a5.58,5.58,0,0,1-7.05-3.49L1398,361.45a5.58,5.58,0,0,1,3.49-7.05l7-2.37a5.58,5.58,0,0,1,7,3.48l12.64,39.92A5.59,5.59,0,0,1,1424.64,402.49Z" fill="#fff"/><path d="M1415.87,406.54a7,7,0,0,1-6.59-4.72l-12.65-39.95a6.88,6.88,0,0,1,.36-5.28,7,7,0,0,1,4-3.51l7-2.37a7,7,0,0,1,8.82,4.35L1429.45,395a7,7,0,0,1-4.36,8.79l-7,2.37A6.76,6.76,0,0,1,1415.87,406.54Zm-5.66-53.42a4.22,4.22,0,0,0-1.34.22l-7,2.37a4.2,4.2,0,0,0-2.61,5.29l12.65,40a4.2,4.2,0,0,0,5.28,2.58l7-2.37a4.17,4.17,0,0,0,2.61-5.29l-12.65-39.95A4.15,4.15,0,0,0,1410.21,353.12Z" fill="#212121"/><path d="M1425.68,969.14a335.83,335.83,0,0,1-9.27-43.4c3.06,12.08,7,25.7,11.94,42.63Zm-14.85-153.79c.69-25.48,2.56-54,6-85.9a1352.26,1352.26,0,0,1,21.47-135.25l2.71.61a1347.4,1347.4,0,0,0-21.41,135C1415.71,765.76,1412.75,793.23,1410.83,815.35Z" fill="#fff"/><path d="M1496.42,959.89h-2.79c0-63,38-376.3,38.4-379.46l2.76.34C1534.4,583.92,1496.42,897,1496.42,959.89Z" fill="#fff"/><circle cx="1045.66" cy="491.28" r="2.37" fill="#3e3e3f"/><circle cx="1045.66" cy="509.2" r="2.37" fill="#3e3e3f"/><circle cx="1045.66" cy="455.45" r="2.37" fill="#3e3e3f"/><circle cx="1045.66" cy="473.36" r="2.37" fill="#3e3e3f"/><circle cx="1045.66" cy="401.7" r="2.37" fill="#3e3e3f"/><circle cx="1045.66" cy="419.61" r="2.37" fill="#3e3e3f"/><circle cx="1045.66" cy="437.53" r="2.37" fill="#3e3e3f"/><circle cx="1045.66" cy="365.86" r="2.37" fill="#3e3e3f"/><circle cx="1045.66" cy="383.78" r="2.37" fill="#3e3e3f"/><circle cx="1050.42" cy="523.72" r="2.37" fill="#3e3e3f"/><circle cx="1086.85" cy="523.72" r="2.37" fill="#3e3e3f"/><circle cx="1068.64" cy="523.72" r="2.37" fill="#3e3e3f"/><circle cx="1086.85" cy="351.34" r="2.37" fill="#3e3e3f"/><circle cx="1068.64" cy="351.34" r="2.37" fill="#3e3e3f"/><circle cx="1050.42" cy="351.34" r="2.37" fill="#3e3e3f"/><path d="M1447.21,491.74l47.81-4.09s-.71,50.31-22.2,51.17C1447.21,539.85,1447.21,491.74,1447.21,491.74Z" fill="#f9d285"/><path d="M482.09,958.49c-3.87,0-7.49-.18-10.93-.45l.22-2.77c36.9,2.88,69.07-11.2,95.67-25.36l1.3,2.45C528.16,953.77,502,958.49,482.09,958.49Z" fill="#fff"/><polygon points="752.63 663.94 762.43 659.94 762.43 592.61 752.43 585.05 752.63 663.94" fill="#fff"/><path d="M752.63,665.11a1.15,1.15,0,0,1-1.17-1.16l-.2-78.9a1.19,1.19,0,0,1,.64-1,1.17,1.17,0,0,1,1.23.12l10,7.56a1.18,1.18,0,0,1,.47.93v67.33a1.18,1.18,0,0,1-.73,1.09l-9.79,4A1.19,1.19,0,0,1,752.63,665.11Zm1-77.7.2,74.79,7.46-3v-66Z" fill="#212121"/><polygon points="777.25 585.05 752.43 585.05 762.43 592.61 787.25 592.61 777.25 585.05" fill="#fff"/><path d="M787.25,593.78H762.43a1.18,1.18,0,0,1-.71-.23l-10-7.57a1.17,1.17,0,0,1,.71-2.1h24.82a1.17,1.17,0,0,1,.71.24l10,7.56a1.17,1.17,0,0,1-.71,2.1Zm-24.43-2.34h20.94l-6.9-5.22h-21Z" fill="#212121"/><rect x="762.43" y="592.61" width="24.82" height="67.33" fill="#fff"/><path d="M787.25,661.11H762.43a1.17,1.17,0,0,1-1.17-1.17V592.61a1.17,1.17,0,0,1,1.17-1.17h24.82a1.17,1.17,0,0,1,1.17,1.17v67.33A1.17,1.17,0,0,1,787.25,661.11Zm-23.65-2.34h22.48v-65H763.6Z" fill="#212121"/><rect x="766.76" y="614" width="15.64" height="3.58" fill="#fff"/><path d="M782.4,618.75H766.76a1.17,1.17,0,0,1-1.17-1.17V614a1.17,1.17,0,0,1,1.17-1.17H782.4a1.17,1.17,0,0,1,1.17,1.17v3.58A1.18,1.18,0,0,1,782.4,618.75Zm-14.47-2.34h13.3v-1.24h-13.3Z" fill="#212121"/><rect x="766.76" y="607" width="15.64" height="3.58" fill="#fff"/><path d="M782.4,611.75H766.76a1.17,1.17,0,0,1-1.17-1.17V607a1.17,1.17,0,0,1,1.17-1.17H782.4a1.17,1.17,0,0,1,1.17,1.17v3.58A1.18,1.18,0,0,1,782.4,611.75Zm-14.47-2.34h13.3v-1.24h-13.3Z" fill="#212121"/><rect x="766.76" y="600" width="15.64" height="3.58" fill="#fff"/><path d="M782.4,604.75H766.76a1.17,1.17,0,0,1-1.17-1.17V600a1.17,1.17,0,0,1,1.17-1.17H782.4a1.17,1.17,0,0,1,1.17,1.17v3.58A1.18,1.18,0,0,1,782.4,604.75Zm-14.47-2.34h13.3v-1.24h-13.3Z" fill="#212121"/><path d="M757.53,646.47a1.17,1.17,0,0,1-1.17-1.17V593.7a1.17,1.17,0,0,1,2.34,0v51.6A1.17,1.17,0,0,1,757.53,646.47Z" fill="#212121"/><path d="M957.51,488.15c-2.55-.22-25.65-.53-37.8,50-16.1,66.9-57.57,140.07-96.47,141.61-19.4.81-30-9.33-35.63-19.16h-10.5c6.73,13.65,20.25,27.54,44.06,27.54.82,0,1.65,0,2.5-.05,26.55-1,49.1-26.93,63.35-48.46,18-27.17,33.28-63.53,42-99.76,10.33-42.91,28.27-43.58,28.49-43.58Z" fill="#212121"/><path d="M881,755.72l-90.53-1.5s-4.79-23.52,56.9-23.52h261.91s57.31,1.49,59.89,24.29Z" fill="#fff"/><path d="M881,757.11h0l-91.64-1.52-.22-1.09c0-.21-1-5.21,3.5-10.73,5.39-6.6,19.27-14.46,54.76-14.46h261.91c2.42.06,58.59,1.79,61.28,25.52l.17,1.55Zm-89.22-4.26L881,754.33l286.51-.73c-4.85-19.88-57.73-21.49-58.28-21.51H847.38c-34.25,0-47.46,7.25-52.52,13.34A12.11,12.11,0,0,0,791.78,752.85Z" fill="#212121"/><path d="M796,627.53a3.53,3.53,0,0,0-2.88-2.21,4.77,4.77,0,0,0-4.2-4c-1.4-.17-.64,1.65-11.28,13.48-9.4,10.46-15.4,9.08-17.23,8.69s-.25-5.58,1.2-10.41-1.43-8.4-3.17-7-4.1,7.67-8,10.61-2.06,18.95-2.06,18.95l.16.12c-22.6,20.6-70.79,58.58-97.95,62.82-31.53,4.92-49.46-26.06-50.15-27.3l-24.06,21.23c.87,1.59,25.57,37.22,63.86,37.22a67.59,67.59,0,0,0,10.39-.82c17.83-2.78,43-22.52,74.79-47.69,20.4-16.16,36.76-31.49,40.79-35.31,17.13-6,29.34-20.25,31.27-25.18,1.61-4.13.59-6.08-1.47-6.93C796,633.81,798,631.38,796,627.53Z" fill="#fff"/><path d="M640.22,751.13c-39.58,0-64.87-37.56-65.08-37.94a1.41,1.41,0,0,1,.3-1.72l24.06-21.22a1.4,1.4,0,0,1,1.16-.33,1.36,1.36,0,0,1,1,.69,65,65,0,0,0,13.2,15.58c10.86,9.3,22.81,13,35.52,11,25.16-3.93,71.25-38.92,96.58-61.88-.39-3.64-1.47-16.65,2.65-19.75,2.15-1.62,3.87-4.48,5.24-6.79a15,15,0,0,1,2.75-3.8,2.8,2.8,0,0,1,3.41,0c1.87,1.28,3.14,4.62,2,8.56l0,.11c-.83,2.76-2.19,7.27-1.93,8.59,2,.41,7.25,1,15.63-8.32a101.64,101.64,0,0,0,9.47-11.79c1-1.44,1.56-2.31,3-2.14a6.07,6.07,0,0,1,5.16,4.16,5.38,5.38,0,0,1,3,2.75h0a7.77,7.77,0,0,1,.6,6.39c1.48,1.15,2.69,3.45.92,8-2.32,5.94-15.27,20-31.82,25.88-4.75,4.51-20.72,19.38-40.67,35.19-30.55,24.19-56.94,45.09-75.44,48A69.71,69.71,0,0,1,640.22,751.13Zm-62-38.38c4,5.63,27.06,35.6,62,35.6a66.63,66.63,0,0,0,10.17-.8c17.77-2.77,43.9-23.46,74.14-47.41,20.18-16,36.26-31,40.7-35.23a1.42,1.42,0,0,1,.5-.3c16.76-5.85,28.72-20,30.43-24.37,1.64-4.18,0-4.85-.7-5.14a1.39,1.39,0,0,1-.81-.94,1.4,1.4,0,0,1,.26-1.22c0-.06,1.34-1.84-.16-4.78h0c-.68-1.34-1.58-1.44-1.68-1.45a1.44,1.44,0,0,1-1.34-1.2,3.34,3.34,0,0,0-2.73-2.73c-.16.21-.4.56-.63.9a104.19,104.19,0,0,1-9.7,12.09c-9.88,11-16.39,9.59-18.52,9.13a2.32,2.32,0,0,1-1.52-1.09c-1.07-1.81-.09-5.35,1.61-11l0-.12a5.94,5.94,0,0,0-.37-4.91c-.32-.49-.6-.62-.66-.62a18.36,18.36,0,0,0-2,3c-1.5,2.51-3.37,5.64-6,7.58-2.2,1.66-2.24,10.89-1.56,17.2a1.44,1.44,0,0,1,.22.7,1.37,1.37,0,0,1-.45,1.09c-21.88,19.93-70.66,58.79-98.68,63.17a46.58,46.58,0,0,1-7,.55c-24.89,0-39.94-21.17-43.65-27.08Z" fill="#212121"/><path d="M776,646.87a50.72,50.72,0,0,0,17.11-21.55" fill="#fff"/><path d="M776,648.26a1.39,1.39,0,0,1-.76-2.55,49.89,49.89,0,0,0,16.58-20.91,1.39,1.39,0,1,1,2.57,1.05A51.59,51.59,0,0,1,776.76,648,1.33,1.33,0,0,1,776,648.26Z" fill="#212121"/><path d="M779.27,652.81s12.91-10.11,16.72-19" fill="#fff"/><path d="M779.27,654.2a1.37,1.37,0,0,1-1.09-.53,1.4,1.4,0,0,1,.24-2c.12-.09,12.67-10,16.3-18.45a1.39,1.39,0,0,1,2.55,1.1c-3.91,9.11-16.6,19.12-17.14,19.54A1.39,1.39,0,0,1,779.27,654.2Z" fill="#212121"/><path d="M719.54,556.05c-19.77-4.19-35.39,15.8-35.39,15.8-14.54,13-101.59,104.11-105.29,108l14.78,21.75c.9-.94,102.64-116.12,102.64-116.12,5.78-.35,17.26,8,20.89,5.54,4.12-2.79-2.23-6.88-6-8.68s-8.11-9.74,0-13.65,13,11.37,14.3,13.28,5,.2,5.58-2.05c0,0,6.37.29,5.94-4.7l-.3-3.58S745.29,561.5,719.54,556.05Z" fill="#fff"/><path d="M593.64,703h-.11a1.42,1.42,0,0,1-1-.61l-14.78-21.75a1.38,1.38,0,0,1,.15-1.74c3.69-3.87,90.34-94.62,105.28-108a54.11,54.11,0,0,1,10.49-9.66c8.67-6.08,17.72-8.35,26.2-6.55,11.16,2.36,17.63,6,19.25,10.7a7.57,7.57,0,0,1-.94,6.63l.26,3.06a5.22,5.22,0,0,1-1.35,4.17,7.84,7.84,0,0,1-5.07,2,6,6,0,0,1-4.12,2.84,3.4,3.4,0,0,1-3.52-1.39,17.41,17.41,0,0,1-1.06-2.14c-1.4-3.1-4.32-9.54-8.08-10.91a4.23,4.23,0,0,0-3.41.25c-2.53,1.22-3.82,2.91-3.81,5a7.62,7.62,0,0,0,3.79,6.13c2.36,1.12,7.85,4.1,8.12,7.58a3.79,3.79,0,0,1-1.94,3.5c-2.6,1.76-7-.13-12-2.31-3.3-1.42-6.7-2.89-9-3-8,9.07-101.37,114.76-102.26,115.69A1.39,1.39,0,0,1,593.64,703Zm-13-23,13.15,19.35c11.28-12.71,100.49-113.71,101.45-114.79a1.39,1.39,0,0,1,1-.46c2.95-.19,7,1.54,10.83,3.21,3.39,1.46,8,3.46,9.36,2.56.76-.52.73-.87.72-1-.09-1.28-2.9-3.55-6.53-5.28a10.29,10.29,0,0,1-5.38-8.64c0-3.17,1.9-5.84,5.38-7.52a7,7,0,0,1,5.57-.36c4.86,1.76,8,8.67,9.66,12.37.34.75.69,1.52.84,1.75s.38.24.77.18a3.15,3.15,0,0,0,2.31-1.83,1.38,1.38,0,0,1,1.4-1c.73,0,2.9-.13,3.92-1.19a2.48,2.48,0,0,0,.58-2l-.3-3.57a1.39,1.39,0,0,1,.32-1,4.87,4.87,0,0,0,.79-4.46c-.9-2.57-4.61-6.19-17.18-8.85-18.69-4-33.86,15.11-34,15.3a1.45,1.45,0,0,1-.17.18C671,585.4,590.08,670.1,580.64,680Z" fill="#212121"/><path d="M532.15,606.93S388.43,676,397.39,857.8c0,0,65,29.68,111.49,1.56,0,0-3.74-61.09,27.94-107.41,0,0,39.26-5.44,39.31-49.13s6.25-55.41-5.68-77S532.15,606.93,532.15,606.93Z" fill="#fff"/><path d="M460.91,872.82a147.79,147.79,0,0,1-25.45-2.32,179.4,179.4,0,0,1-38.65-11.43l-.77-.35,0-.85C394,816.22,399.79,777,413.37,741.43a259.54,259.54,0,0,1,47-78.14c34.6-39.75,70.82-57.43,71.18-57.61l.23-.1.24,0c.27,0,27.43-2.44,39.66,19.64,8.57,15.49,8,26.38,6.89,46.13-.45,8.26-1,18.55-1,31.5,0,41.31-34.75,49.43-39.88,50.4-30.68,45.32-27.41,105.45-27.37,106l.05.84-.72.44C494.19,869.87,476.78,872.82,460.91,872.82Zm-62.17-16c7.39,3.16,66.15,26.81,108.71,1.72-.28-7.6-1.33-64.21,28.23-107.42l.34-.51.61-.09a49.39,49.39,0,0,0,19.13-8c12.57-8.78,19-22.15,19-39.75,0-13,.59-23.35,1-31.65,1.1-19.86,1.64-29.83-6.54-44.62-10.74-19.4-34.1-18.42-36.72-18.24-3.11,1.56-37.35,19.19-70.14,56.91a256.87,256.87,0,0,0-46.44,77.28C402.61,777.48,396.83,816,398.74,856.87Z" fill="#212121"/><path d="M543.43,588.16s-6.86,11.57-11.28,18.77c0,0,10.82,17.73,24.56,18.33l13.74.61s-2.84-8.49,2.58-18.26c0,0,24.45,8,32.19,1.31s17.28-30.56,17.28-30.56,10.83-4.76,11.17-9.85-9.77-3.46-9-14.4,3.23-37.37-2.16-45.28-50.39,0-50.39,0l-35.29,26.39" fill="#fff"/><path d="M570.45,627.26h-.06l-13.74-.61c-14.31-.63-25.23-18.24-25.69-19a1.4,1.4,0,0,1,0-1.45c4.37-7.11,11.21-18.64,11.27-18.76a1.39,1.39,0,1,1,2.39,1.42c-.06.11-6.45,10.89-10.83,18,2.16,3.23,11.66,16.47,23,17l11.91.52a26.42,26.42,0,0,1,3.14-17.47,1.38,1.38,0,0,1,1.64-.65c6.6,2.16,25,6.64,30.86,1.58,7.39-6.37,16.79-29.78,16.89-30a1.31,1.31,0,0,1,.73-.75c3.89-1.72,10.14-5.58,10.34-8.68.08-1.11-.66-1.68-2.65-2.88-2.9-1.76-6.86-4.17-6.35-11.51.06-.88.13-1.85.21-2.9.83-11.24,2.55-34.63-2.14-41.51-3.54-5.19-31.58-2.45-48.67.53l-35,26.19a1.39,1.39,0,1,1-1.67-2.22l35.29-26.4a1.34,1.34,0,0,1,.59-.25c4.7-.83,46-7.83,51.78.58,5.23,7.69,3.53,30.84,2.61,43.28-.08,1-.15,2-.21,2.89-.39,5.66,2.36,7.33,5,8.94,2,1.19,4.18,2.54,4,5.45-.36,5.26-9,9.66-11.48,10.8-1.49,3.64-10.1,24.22-17.45,30.57s-27.38.82-32.41-.69a23,23,0,0,0-2,16.15,1.43,1.43,0,0,1-.21,1.28A1.4,1.4,0,0,1,570.45,627.26Z" fill="#212121"/><path d="M626.26,522.94s20.17-17.63-6.93-31.84c-15.61-8.19-41.54-4.56-41.54-4.56l-39.26,13.53s-27.82,15.42-23.07,40.78,25.5,37.88,23,54.18c0,0,19.1-7.67,22.46-25.83,0,0-14.76-7.18-9.63-15.09s18.69-11.66,16.85,6.28c-1,9.34,8.23,14.81,8.23,14.81a54.17,54.17,0,0,0,6.55-35.94s9.5-17.65,25.34-21.4A19.15,19.15,0,0,1,626.26,522.94Z" fill="#212121"/><rect x="613.56" y="543.53" width="5.61" height="9.57" rx="2.8" transform="translate(-25.32 29.85) rotate(-2.72)" fill="#212121"/><path d="M609.64,540.65a1.37,1.37,0,0,1-.61-.15,1.4,1.4,0,0,1-.64-1.86c3.28-6.69,9.22-7.09,9.47-7.1a1.37,1.37,0,0,1,1.47,1.31,1.39,1.39,0,0,1-1.31,1.46c-.19,0-4.59.38-7.13,5.56A1.39,1.39,0,0,1,609.64,540.65Z" fill="#212121"/><path d="M610.75,588.72c-8.44,0-10.18-5.77-10.25-6a1.38,1.38,0,0,1,1-1.72,1.4,1.4,0,0,1,1.72.95c.06.19,1.34,4,7.58,4h.09a1.39,1.39,0,1,1,0,2.78Z" fill="#212121"/><path d="M601.8,684.59s-31.58-64.94-63.27-47.9c-26.22,14.11,39.24,83.42,39.24,83.42l32.9-25.22Z" fill="#fff"/><path d="M577.62,722l-.86-.92c-2-2.13-49.4-52.62-45.6-76.16a12.51,12.51,0,0,1,6.71-9.43,24.46,24.46,0,0,1,19.79-1.68c10.38,3.35,21.18,12.84,32.11,28.2A176.22,176.22,0,0,1,603,683.82l9.71,11.27Zm-28.09-86.74a21.6,21.6,0,0,0-10.34,2.68,9.68,9.68,0,0,0-5.28,7.42c-1.47,9.08,5.77,24.67,20.94,45.1,9.83,13.23,20.1,24.57,23.08,27.8l30.73-23.56-8.11-9.48c-.2-.41-20.27-41.18-43.75-48.76A23.5,23.5,0,0,0,549.53,635.24Z" fill="#212121"/><path d="M608,685.24s-41.59,27.9-39.78,31.84S580,724.65,580,724.65s36.76-28,36.5-30.3S608,685.24,608,685.24Z" fill="#fff"/><path d="M580.2,726.22l-.71-.26c-1.08-.39-10.57-4-12.56-8.3-.64-1.39-1.61-3.49,19.65-19.1,10.08-7.4,20.51-14.41,20.62-14.48l.86-.58.8.67c2.6,2.15,8.69,7.43,9,10,.12,1.08.25,2.21-18.67,17.26-9.06,7.21-18.27,14.23-18.36,14.3Zm-10.64-9.51c1.29,2.29,6.6,5,10.17,6.37,15.93-12.15,33.17-26,35.25-28.83-.61-1.29-3.9-4.55-7.1-7.28C589.64,699.25,570.73,713.44,569.56,716.71ZM615.14,694Z" fill="#212121"/><polygon points="723.86 581.34 719.53 581.71 717.69 585.64 720.17 589.2 724.5 588.83 726.34 584.9 723.86 581.34" fill="#fff"/><path d="M720.17,590.59A1.38,1.38,0,0,1,719,590l-2.48-3.56a1.39,1.39,0,0,1-.12-1.39l1.85-3.93a1.37,1.37,0,0,1,1.14-.79l4.33-.37a1.41,1.41,0,0,1,1.25.59l2.48,3.57a1.37,1.37,0,0,1,.12,1.38l-1.85,3.94a1.37,1.37,0,0,1-1.14.79l-4.32.37Zm-.88-5.09,1.56,2.25,2.73-.23,1.16-2.48-1.56-2.25-2.73.23Z" fill="#212121"/><path d="M731.07,579.9s-.7-19.53-16.9-20.34" fill="#fff"/><path d="M731.07,581.29a1.39,1.39,0,0,1-1.39-1.34,28.76,28.76,0,0,0-2.29-9.43c-2.69-6-7.16-9.27-13.29-9.58a1.39,1.39,0,0,1,.14-2.77c17.28.86,18.21,21.47,18.22,21.68a1.39,1.39,0,0,1-1.34,1.44Z" fill="#212121"/><path d="M737,575.2s-4.24-17.44-17.47-19.15" fill="#fff"/><path d="M737,576.59a1.41,1.41,0,0,1-1.35-1.06c0-.17-4.19-16.53-16.29-18.1a1.39,1.39,0,0,1,.35-2.76c14,1.82,18.46,19.45,18.64,20.2a1.39,1.39,0,0,1-1,1.68A1.86,1.86,0,0,1,737,576.59Z" fill="#212121"/><path d="M244.18,425.94a58.18,58.18,0,0,1-14.75,10.21" fill="#fff"/><path d="M229.43,437.54a1.39,1.39,0,0,1-.63-2.63A57.43,57.43,0,0,0,243.17,425a1.39,1.39,0,1,1,2,1.92c-.21.22-5.35,5.55-15.12,10.49A1.42,1.42,0,0,1,229.43,437.54Z" fill="#212121"/><path d="M232.24,442.47s13.12-3.93,17-11.42" fill="#fff"/><path d="M232.25,443.86a1.39,1.39,0,0,1-.4-2.72c.12,0,12.6-3.85,16.2-10.74a1.39,1.39,0,0,1,2.46,1.29c-4.14,7.92-17.31,11.94-17.87,12.11A1.32,1.32,0,0,1,232.25,443.86Z" fill="#212121"/><circle cx="555.29" cy="479.54" r="30.34" fill="#212121"/><path d="M533,503.34l-1.69-2.22c.89-.67,22.09-16.55,56.86-18.14l.13,2.77C554.43,487.3,533.2,503.18,533,503.34Z" fill="#fff"/><path d="M1387.41,415.76c-5.9,10.87-37.86,70-49.23,125.71-3.08,1.24-10.92,4.62-13.76,7.86-3.56,4.07-5.71,9.81-2.07,12.19,2.68,1.75,7.15-9.15,14.43-3.32,3.75,3,14.46,5.58,14.46,5.58s11.22-1.27,11.44-17.2c5.31-26.12,15.1-52.29,25.06-75.11C1387.52,468.78,1387.41,423.1,1387.41,415.76Z" fill="#fff"/><path d="M1351.16,565.19l-.24-.06c-.45-.11-11.06-2.69-15-5.84-3.44-2.76-5.87-1.1-8.93,1.56-1.74,1.5-3.53,3-5.39,1.84a5.43,5.43,0,0,1-2.45-3.92c-.48-3.52,1.87-7.66,4.23-10.35,2.76-3.15,9.43-6.24,13.6-8,3.63-17.46,15.48-63.16,49.21-125.36l2.61-4.82v5.48c0,8.42.12,53.06.33,55.6l0,.34-.14.32c-12.26,28.12-20.43,52.56-24.94,74.71-.16,8.68-3.52,13.22-6.31,15.5a13.33,13.33,0,0,1-6.36,2.93Zm-18.67-10.12a8.17,8.17,0,0,1,5.16,2c2.79,2.23,10.55,4.48,13.65,5.24,1.5-.27,9.8-2.39,10-15.8l0-.26c4.53-22.3,12.72-46.86,25-75.09-.18-4.36-.28-36.09-.31-49.93-32,60.26-43.14,104.13-46.47,120.47l-.15.73-.7.28c-2.42,1-10.53,4.41-13.23,7.49-2.43,2.77-3.86,6-3.58,8.14a2.65,2.65,0,0,0,1.16,1.92,9.63,9.63,0,0,0,2.11-1.57C1326.89,557.24,1329.39,555.07,1332.49,555.07Z" fill="#212121"/></svg>